<svg xmlns="http://www.w3.org/2000/svg" width="725.602" height="350.472" viewBox="0 0 725.602 350.472">
  <g id="Grupo_1" data-name="Grupo 1" transform="translate(-495 -540)">
    <path id="Trazado_1" data-name="Trazado 1" d="M627.16,101.42c-1.08,6.17,2.58,11.3,8.18,12.41a10.06,10.06,0,0,0,12.1-8.41c1.08-6.17-2.57-12.07-8.17-13.17S628.25,95.25,627.16,101.42Z" transform="translate(467.602 508.59)" fill="#ffd4ae"/>
    <path id="Trazado_2" data-name="Trazado 2" d="M588.09,101.42c1.09,6.17-2.57,11.3-8.17,12.41a10.06,10.06,0,0,1-12.1-8.41c-1.09-6.17,2.57-12.07,8.17-13.17S587,95.25,588.09,101.42Z" transform="translate(467.602 508.59)" fill="#ffd4ae"/>
    <path id="Trazado_3" data-name="Trazado 3" d="M635.57,59.85a30.6,30.6,0,0,0-23-12.66h-.47v-.35l-4.46.17-4.46-.17v.35h-.47a30.6,30.6,0,0,0-23.05,12.66c-5.47,7.44-6.2,16.8-5.77,25.77.33,6.78,1.53,17.71,1.87,24.49,5.49,20.54,19.15,24,31.87,24s26.83-3.51,31.87-24c.33-6.78,1.53-17.71,1.86-24.49C641.77,76.65,641,67.29,635.57,59.85Z" transform="translate(467.602 508.59)" fill="#ffd4ae"/>
    <rect id="Rectángulo_1" data-name="Rectángulo 1" width="17.26" height="18.13" transform="translate(1066.572 638.47)" fill="#ffd4ae"/>
    <path id="Trazado_4" data-name="Trazado 4" d="M656.87,225.42c.17-.12-18.14-55.88-20.4-62.15-3.09-8.62-1.53-17.6-21.68-24.06-1.07.66-1,1.43-.26,2.28h0l-6.89,1.25-6.89-1.25h0c.75-.85.81-1.62-.26-2.28-20.16,6.46-20.52,14.06-23.62,22.67-2.25,6.28-18.63,63.42-18.46,63.54-.15,3.21-.23,9.64,1.7,14.41,2.48,6.17,6.75,10.25,8.72,6,.68-1.47-2.76-8.06-.72-12.65a1.7,1.7,0,0,1,1.65-.76c.64,0,.31,5.7.43,6.28.43,2,3.87,1.76,4-.38l.57-8a3.7,3.7,0,0,0-1-3.42,5.12,5.12,0,0,1-2-3.71c-.25-2.85,1.56-14.62,2.18-17.64,2.16-10.48,7-29,9.42-40.93L585.29,310l-10.43,6.46s-1.86,1.61,1.09,1.61h20.23s2.8.15,2.8-3.23l2.32-89.36,6.33-.3,6.34.3,2.32,89.36c0,3.38,2.8,3.23,2.8,3.23h20.22c3,0,1.09-1.61,1.09-1.61L630,310l-.24-151c2.38,12,9.34,36.09,11.51,46.57.62,3,2.43,14.79,2.18,17.64a5.16,5.16,0,0,1-2,3.71,3.67,3.67,0,0,0-1,3.42l.56,8c.17,2.14,3.62,2.34,4,.38.13-.58-.2-6.28.43-6.28s1.35.08,1.65.76c2.05,4.59-1.4,11.18-.71,12.65,2,4.27,6.23.19,8.72-6C657.1,235.06,657,228.63,656.87,225.42Z" transform="translate(467.602 508.59)" fill="#ffd4ae"/>
    <path id="Trazado_5" data-name="Trazado 5" d="M623.31,141.45a36.652,36.652,0,0,1-3-2.24s-3.64-2.32-3.51-2.27-9.15,5.35-9.15,5.35l-9.14-5.35-3.4,2.27a17.9,17.9,0,0,1-3.13,2.24c3.94,12.68,6.65,29.44,15.67,39.51C616.05,170.13,619.27,154.1,623.31,141.45Z" transform="translate(467.602 508.59)" fill="#ff9cbd"/>
    <path id="Trazado_6" data-name="Trazado 6" d="M574.48,316.22c-1,.62-1,.55-.51,1.49a2.116,2.116,0,0,0,2,.82h20.28a4,4,0,0,0,2.65-1.24c-1.89-3.58-8-5.75-13.42-7.78Z" transform="translate(467.602 508.59)" fill="#3c313f"/>
    <path id="Trazado_7" data-name="Trazado 7" d="M640.78,316.22l-10.47-6.58c-5,1.78-10.61,3.32-13.8,7.82a4.549,4.549,0,0,0,.75.54,3.39,3.39,0,0,0,1.78.53h20.27a2.127,2.127,0,0,0,2-.82C641.81,316.77,642,317.14,640.78,316.22ZM619,318.09Z" transform="translate(467.602 508.59)" fill="#3c313f"/>
    <path id="Trazado_8" data-name="Trazado 8" d="M630.46,309.77,635,220.21H580.2l4.58,89.56A41.4,41.4,0,0,1,599,317.56a4.48,4.48,0,0,0,.47-2.7l4.09-76.17h8.21l4.08,76.17a4.17,4.17,0,0,0,.69,2.82C625.19,311,630.46,309.77,630.46,309.77Z" transform="translate(467.602 508.59)" fill="#89827e"/>
    <path id="Trazado_9" data-name="Trazado 9" d="M585.76,141.17l-3.46-21.65,2.51-4.26-4.45-3.13v-.24l-.13.12-.14-.12v.24l-4.44,3.13,2.51,4.26-3.46,21.65,5.53,8.87Z" transform="translate(494.992 540)" fill="#3c313f"/>
    <path id="Trazado_10" data-name="Trazado 10" d="M582.8,92.83a1.27,1.27,0,0,1-.86-2.21c2.39-2.19,10.06-3.17,13.51-1.12a1.271,1.271,0,0,1-1.29,2.19c-2.41-1.42-8.86-.7-10.5.81a1.31,1.31,0,0,1-.86.33Z" transform="translate(467.602 508.59)" fill="#a57944"/>
    <path id="Trazado_11" data-name="Trazado 11" d="M631.84,93.34a1.27,1.27,0,0,1-1-.47c-1.27-1.56-8-2.31-10.69-1.2a1.28,1.28,0,0,1-1.66-.7,1.26,1.26,0,0,1,.7-1.66c3.24-1.32,11.36-.84,13.63,2a1.224,1.224,0,0,1-.98,2.03Z" transform="translate(467.602 508.59)" fill="#a57944"/>
    <path id="Trazado_12" data-name="Trazado 12" d="M607.27,124.53c-4,0-7.56-1-9.81-2.87a1.284,1.284,0,1,1,1.61-2c2,1.62,5.48,2.47,9.37,2.26,3.51-.18,6.68-1.21,7.89-2.54a1.25,1.25,0,0,1,1.79-.09,1.27,1.27,0,0,1,.1,1.8c-1.68,1.85-5.38,3.15-9.65,3.38Z" transform="translate(467.602 508.59)" fill="#ba8663"/>
    <path id="Trazado_13" data-name="Trazado 13" d="M581.84,147.66a27.481,27.481,0,0,0-5,5.51c-7,10.68-15.9,44-18.9,71a.46.46,0,0,0,.38.48,34.61,34.61,0,0,0,13.95.62.46.46,0,0,0,.32-.22.44.44,0,0,0,0-.37c-.18-.42,3.93-29.66,9.71-48.08C584,166.8,583.1,157.42,581.84,147.66Z" transform="translate(467.602 508.59)" fill="#ff9cbd"/>
    <path id="Trazado_14" data-name="Trazado 14" d="M638.4,153.17a27.259,27.259,0,0,0-4.4-5,79,79,0,0,0-1.42,27.34c5.95,18.33,10.24,48.69,10,49.12a.4.4,0,0,0,0,.37.44.44,0,0,0,.31.22,34.6,34.6,0,0,0,13.95-.62.46.46,0,0,0,.39-.48C654.29,197.16,645.41,163.85,638.4,153.17Z" transform="translate(467.602 508.59)" fill="#ff9cbd"/>
    <path id="Trazado_15" data-name="Trazado 15" d="M598.46,151a.67.67,0,0,1-.52-.25.66.66,0,0,1,.11-.93l9.14-7.23a.66.66,0,1,1,.82,1l-9.14,7.23a.7.7,0,0,1-.41.18Z" transform="translate(467.602 508.59)" fill="#d67294"/>
    <path id="Trazado_16" data-name="Trazado 16" d="M616.75,151a.68.68,0,0,1-.41-.14l-9.15-7.23a.67.67,0,0,1-.11-.93.66.66,0,0,1,.93-.11l9.15,7.23a.66.66,0,0,1-.41,1.18Z" transform="translate(467.602 508.59)" fill="#d67294"/>
    <path id="Trazado_17" data-name="Trazado 17" d="M635.55,185.27q-1.2-4.5-1.86-7.87h0c-.24-1.27-.36-2.05-.4-2.38a1,1,0,0,0,0-.26,74.9,74.9,0,0,1,1.6-26.38.88.88,0,0,0-.27-.86A48.629,48.629,0,0,0,621,138.86a.85.85,0,0,0-.31-.06.92.92,0,0,0-.43.11.89.89,0,0,0-.44.6c0,.2-4,19.61-12.17,29.56-8.19-10-12.13-29.36-12.17-29.56a.91.91,0,0,0-.43-.6,1,1,0,0,0-.43-.11.85.85,0,0,0-.31.06,48.74,48.74,0,0,0-13,8.13.93.93,0,0,0-.3.78c1.3,10,2.07,17.28,1,27a1,1,0,0,0-.06.47,88.717,88.717,0,0,1-2.24,10.06c-1.44,5.34-4.8,18.86-4.8,28.92,0,6.59,1.11,11.88,6.53,16.26,3.76,3.05,16.46,4.13,26.19,4.13,10.5,0,22.68-1.27,26.2-4.13,5.42-4.38,6.52-9.67,6.52-16.26C640.35,204.13,637,190.61,635.55,185.27ZM632.41,175Zm-49.06-8v-.81C583.36,166.41,583.35,166.69,583.35,167Zm-.48,8Zm0,.16Zm0,0v0Zm0,0Zm.12-.9c0-.35.07-.71.1-1.06a2.939,2.939,0,0,0-.09.94Zm.16-1.84a4.762,4.762,0,0,1,.07-1,5.012,5.012,0,0,0-.11.88Zm.13-1.92v-.84c-.01.16-.03.44-.04.72Zm.07-1.84v0Zm-1.47-20.88c.69,5.37,1.26,10.07,1.45,14.87-.23-4.92-.8-9.65-1.49-14.99Zm1.51,17.75Zm0-1.58v0Z" transform="translate(467.602 508.59)" fill="#3c313f"/>
    <path id="Trazado_18" data-name="Trazado 18" d="M579.9,72.33c-.44.94-.3,5.83,5.15,5.66,4.75-.14,7.4-3,9.82-5.48,0,0-4.48,7,1.44,8.46s11.6-6.37,11.6-6.37c-.83.61-1,3.93,1.42,5,3.63,1.64,12,.37,21.43-12,8.72,11,9.42,30.15,9.49,31.5,0,.54.17,2,.89,1.87s.89-3.11,1-3.75a106.683,106.683,0,0,0,.73-13.49c0-8.27,2.39-24.19-12.57-34.11-9.21-6.1-28.23-6.71-38.82-3.26-7.37,2.41-14.44,8.68-17.07,16-2.89,8-2.81,14.29-1.86,30.18.1,1.72.3,3.45.54,5.15.16,1.14.31,2.3.58,3.42.6,2.43,1.44.69,1.42-.82C575,98,574.23,81.11,579.9,72.33Z" transform="translate(467.602 508.59)" fill="#cc9b54"/>
    <path id="Trazado_19" data-name="Trazado 19" d="M594.26,102.41a1.24,1.24,0,0,1-.56-.13c-3.77-1.87-9-1-10.13-.14a1.27,1.27,0,0,1-1.55-2c2-1.54,8.42-2.3,12.81-.13a1.28,1.28,0,0,1-.57,2.42Z" transform="translate(467.602 508.59)" fill="#ba8663"/>
    <path id="Trazado_20" data-name="Trazado 20" d="M630.14,102.2a1.24,1.24,0,0,1-.56-.13c-2.27-1.11-7.45-1.62-10-.07a1.271,1.271,0,1,1-1.34-2.16c3.4-2.12,9.52-1.46,12.41-.06a1.27,1.27,0,0,1-.56,2.42Z" transform="translate(467.602 508.59)" fill="#ba8663"/>
    <path id="Trazado_21" data-name="Trazado 21" d="M86.93,104.11c-1.08,6.17,2.57,11.31,8.17,12.42a10.07,10.07,0,0,0,12.1-8.41c1.09-6.17-2.57-12.07-8.17-13.18S88,97.94,86.93,104.11Z" transform="translate(467.602 508.59)" fill="#fc9"/>
    <path id="Trazado_22" data-name="Trazado 22" d="M47.86,104.11c1.08,6.17-2.57,11.31-8.17,12.42a10.07,10.07,0,0,1-12.1-8.41C26.5,102,30.16,96.05,35.76,94.94S46.78,97.94,47.86,104.11Z" transform="translate(467.602 508.59)" fill="#fc9"/>
    <path id="Trazado_23" data-name="Trazado 23" d="M95.34,62.55a30.61,30.61,0,0,0-23-12.67h-.47v-.36l-4.46.18-4.46-.18v.36h-.47a30.59,30.59,0,0,0-23,12.67c-5.47,7.43-6.2,16.8-5.77,25.77C34,95.09,35.16,106,35.5,112.81c5.49,20.54,19.15,24.05,31.87,24.05s26.84-3.51,31.87-24.05c.34-6.78,1.54-17.72,1.87-24.49C101.54,79.35,100.81,70,95.34,62.55Z" transform="translate(467.602 508.59)" fill="#fc9"/>
    <rect id="Rectángulo_2" data-name="Rectángulo 2" width="17.22" height="21.09" transform="translate(526.362 642.03)" fill="#fc9"/>
    <path id="Trazado_24" data-name="Trazado 24" d="M85.54,310l4.3-86.92H44.89L49.2,310a38.511,38.511,0,0,1,13.33,7.56A4.5,4.5,0,0,0,63,315l-1.13-86.33h11L71.77,315a4.26,4.26,0,0,0,.64,2.74C80.58,311.17,85.54,310,85.54,310Z" transform="translate(467.602 508.59)" fill="#89827e"/>
    <path id="Trazado_25" data-name="Trazado 25" d="M100.6,161.28c-1.77-8-5.77-10.49-19.83-15.06-11.24-3.94-15.07-4.54-28.15.44-13.08,4.28-16.79,6.78-18.47,14.62-.54,2.51.25,17.08,1.71,22.05.85,2.89,3.22,12.64,9.25,12.32l-.22,28.08,45,.06-.22-29c7.15.1,10-7.73,10.31-10.3C100.79,176.44,101.15,163.76,100.6,161.28Z" transform="translate(467.602 508.59)" fill="#3c313f"/>
    <path id="Trazado_26" data-name="Trazado 26" d="M39.48,316.29c-.94.6-1,.53-.48,1.45a2,2,0,0,0,1.87.79H60a3.69,3.69,0,0,0,2.5-1.2c-1.78-3.48-7.57-5.58-12.63-7.56Z" transform="translate(467.602 508.59)" fill="#54485a"/>
    <path id="Trazado_27" data-name="Trazado 27" d="M95.26,316.29l-9.86-6.38c-4.71,1.72-10,3.21-13,7.58a5.161,5.161,0,0,0,.7.53,3.11,3.11,0,0,0,1.68.51h19.1a1.94,1.94,0,0,0,1.86-.79C96.23,316.82,96.38,317.18,95.26,316.29ZM74.79,318.11Z" transform="translate(467.602 508.59)" fill="#54485a"/>
    <path id="Trazado_28" data-name="Trazado 28" d="M54,100.74c0,2.51-1.71,4.54-3.82,4.54s-3.82-2-3.82-4.54,1.71-4.53,3.82-4.53S54,98.24,54,100.74Z" transform="translate(467.602 508.59)" fill="#3a1e0a"/>
    <path id="Trazado_29" data-name="Trazado 29" d="M88.74,100.74c0,2.51-1.71,4.54-3.82,4.54s-3.82-2-3.82-4.54,1.71-4.53,3.82-4.53S88.74,98.24,88.74,100.74Z" transform="translate(467.602 508.59)" fill="#3a1e0a"/>
    <path id="Trazado_30" data-name="Trazado 30" d="M55.5,92.66H44.82a1.28,1.28,0,1,1,0-2.55H55.5a1.28,1.28,0,1,1,0,2.55Z" transform="translate(467.602 508.59)" fill="#99826e"/>
    <path id="Trazado_31" data-name="Trazado 31" d="M90.53,91.68a1.3,1.3,0,0,1-.93-.4c-1.95-2-6.6-2-9.39.12a1.28,1.28,0,0,1-1.54-2c3.85-2.9,9.93-2.82,12.78.16a1.28,1.28,0,0,1,0,1.8,1.24,1.24,0,0,1-.92.32Z" transform="translate(467.602 508.59)" fill="#99826e"/>
    <path id="Trazado_32" data-name="Trazado 32" d="M85,121.46c-2.85,0-6-4.09-17.62-4.09-9.93,0-13.88,4.09-18.21,4.09-9.71,0-13.73-10.26-13.65-8.65,5.49,20.54,19.15,24.05,31.87,24.05s26.84-3.51,31.87-24.05C99.31,111.4,95.47,121.46,85,121.46Z" transform="translate(467.602 508.59)" fill="#d7bca6"/>
    <path id="Trazado_33" data-name="Trazado 33" d="M67.37,137.28c-12,0-26.51-2.77-32.28-24.36a.28.28,0,0,1,0-.09.6.6,0,0,1,.14-.48.5.5,0,0,1,.33-.14c.31,0,.46.21,1,1,1.5,2.14,5.49,7.82,12.58,7.82a14.8,14.8,0,0,0,5.23-1.39,32.48,32.48,0,0,1,13-2.7c7.89,0,11.91,1.86,14.58,3.08a7.93,7.93,0,0,0,3,1c7.89,0,12-6,13.33-7.91.47-.69.6-.87.9-.87a.45.45,0,0,1,.32.14.59.59,0,0,1,.14.44C94.3,134.76,78.67,137.28,67.37,137.28Zm-31-22.82c5.91,19.42,19.59,22,31,22,21.63,0,28.2-12,31-21.89-1.87,2.56-6.06,7.34-13.37,7.34a8.59,8.59,0,0,1-3.4-1.09c-2.59-1.19-6.52-3-14.22-3a31.66,31.66,0,0,0-12.67,2.64,15.67,15.67,0,0,1-5.54,1.45c-6.81-.03-10.87-4.86-12.76-7.45Z" transform="translate(467.602 508.59)" fill="#d7bca6"/>
    <path id="Trazado_34" data-name="Trazado 34" d="M67.6,126.24c-3.32,0-7.06-.86-9.25-3a1.28,1.28,0,1,1,1.8-1.81c1.82,1.81,5.89,2.71,9.68,2.13,2.52-.38,4.45-1.38,5.14-2.67a1.28,1.28,0,0,1,2.25,1.2c-1.11,2.06-3.59,3.48-7,4A16.691,16.691,0,0,1,67.6,126.24Z" transform="translate(467.602 508.59)" fill="#99826e"/>
    <path id="Trazado_35" data-name="Trazado 35" d="M80.2,146.22A1.75,1.75,0,0,1,78.45,148H56.28a1.76,1.76,0,0,1-1.76-1.76v-8.57a1.76,1.76,0,0,1,1.76-1.76s3.15,1.43,10.76,1.43,11.41-1.43,11.41-1.43a1.75,1.75,0,0,1,1.75,1.76Z" transform="translate(467.602 508.59)" fill="#3c313f"/>
    <path id="Trazado_36" data-name="Trazado 36" d="M67.12,151.53c-5.84,0-10.45-1.46-12.32-3.92a.67.67,0,0,1,.12-.94.68.68,0,0,1,.94.13c1.6,2.1,5.91,3.4,11.26,3.4,8.38,0,11-1.86,11.69-3.42a.67.67,0,0,1,.88-.33.66.66,0,0,1,.33.88C78.74,150.16,74.52,151.53,67.12,151.53Z" transform="translate(467.602 508.59)"/>
    <path id="Trazado_37" data-name="Trazado 37" d="M36.63,94.81c0,1.88,0,5.93-3.61,4-2.24-1.2-3.84-2.6-3.84-5.63L29.69,77c.71-4.8,4.06-8.89,6.58-8.89-.17,1.38-1,2.86-.51,4.18a12.38,12.38,0,0,1,.87,4.31Z" transform="translate(467.602 508.59)" fill="#b5ac9e"/>
    <path id="Trazado_38" data-name="Trazado 38" d="M98.18,94.81c0,1.88,0,5.93,3.61,4,2.23-1.19,3.83-2.6,3.83-5.63L105.11,77c-.71-4.8-4.06-8.89-6.58-8.89.17,1.38,1,2.86.51,4.18a12.38,12.38,0,0,0-.87,4.31C98.17,77.4,98.18,91.76,98.18,94.81Z" transform="translate(467.602 508.59)" fill="#b5ac9e"/>
    <path id="Trazado_39" data-name="Trazado 39" d="M51.88,182.86c3.37,2.67,34.49,11.46,36.29,11.42Z" transform="translate(467.602 508.59)" fill="#fff" stroke="#000" stroke-linecap="round" stroke-linejoin="round" stroke-width="1.5"/>
    <path id="Trazado_40" data-name="Trazado 40" d="M74.05,175.41c-6.69-1.59-13-3.65-14-3.92Z" transform="translate(467.602 508.59)" fill="#fff" stroke="#000" stroke-linecap="round" stroke-linejoin="round" stroke-width="1.5"/>
    <path id="Trazado_41" data-name="Trazado 41" d="M88.06,174.79" transform="translate(467.602 508.59)" fill="#fff" stroke="#000" stroke-linecap="round" stroke-linejoin="round" stroke-width="1.5"/>
    <path id="Trazado_42" data-name="Trazado 42" d="M46.5,195.28c1.25.46,4.51-.86,5.79-1.38,2.08-.83,11-4.41,14-5.6Z" transform="translate(467.602 508.59)" fill="#fff" stroke="#000" stroke-linecap="round" stroke-linejoin="round" stroke-width="1.5"/>
    <path id="Trazado_43" data-name="Trazado 43" d="M58.2,172.23c-3.32-2.2-9,1.2-11.77,3.72-1.06,1-2.8,3.05-1.39,4.06,2.08,1.5,4.41,2,6.36.83C51.87,180.55,59.06,172.79,58.2,172.23Z" transform="translate(467.602 508.59)" fill="#fc9"/>
    <path id="Trazado_44" data-name="Trazado 44" d="M93.49,174c-.07,1.39-2.52,1.14-3.69,1.07.88.18,4.18.27,4.25,1.55.1,1.85-2.39,1.79-3.32,1.92,2.87,0,3.7,2,.72,2.78a7.37,7.37,0,0,1-4.73-.62c-4.89-2.39-10.25-4.44-10.53-5.12-.41-1,1.11-1.52,1.77-1.86a16.88,16.88,0,0,1,7.56-2.26C88.06,171.49,93.61,171.66,93.49,174Z" transform="translate(467.602 508.59)" fill="#fc9"/>
    <path id="Trazado_45" data-name="Trazado 45" d="M153.72,196.22A48.74,48.74,0,0,0,150,214.93c-.2,15.77,6.46,77,5.84,89.05a9.29,9.29,0,0,1-2.51,5.67,6.08,6.08,0,0,0-.78,2.79c-.14,4.52-4.55,4.31-4.55,4.31s-.77,2.17,1.75,1.06l16.41-7.22s.92,1.55.92-1.8l-.25-94.89,3.5-.29,3.49.29,3.37,27.7,10.72,67c.48,3.31,0,1.88,0,1.88s14.46,7.72,13.66,3.26c0-.13,1.34-1.29.61-1.9-1.18-1-4.5-6.92-5-9.48-1.59-8-3.08-38.93-4.64-62.84h0c-.31-12.51-1.78-19.47-1.84-24.62a48.35,48.35,0,0,0-3.3-17.49C176.31,198,164.62,196.28,153.72,196.22Z" transform="translate(467.602 508.59)" fill="#f4cd98"/>
    <path id="Trazado_46" data-name="Trazado 46" d="M186.77,141.65h0l-.13-.07-.37-.28v.09a37,37,0,0,0-6.94-2.53.41.41,0,0,0-.58.32v.09c-1.64,9-3.66,20.12-7.87,28.52v-.59l-.45.75-.45-.75v.59c-4.2-8.4-6.23-19.51-7.87-28.52v-.09a.41.41,0,0,0-.58-.32,35.109,35.109,0,0,0-7.44,2.79c-2.42,1.77-26,20.26-23.53,31.65a65.73,65.73,0,0,0,12.1,24.09c1.83,2.19,4.09-1.5,5.72-3,.8-.72,2.74-2.48,3.13-4.21a2,2,0,0,0-.34-.86c-3.33-4.5-7.08-10-7.08-10-3.38-6.65-2.49-8.06-2.49-8.06.94-4.43,10.94-12.2,12.44-13.64a12.51,12.51,0,0,0,2.33,7.69c2.15,3.15,2.39,10,.62,17.87a37.518,37.518,0,0,1-1.72,4.9c-.42,1.09-.89,2.27-1.37,3.58a2.12,2.12,0,0,1-.59,1.67,67.23,67.23,0,0,0-3.8,21.64c-.08,6.27.89,19.14,1.88,31.79a.44.44,0,0,0,.41.4c1.43,0,41-1.89,41-2.11,1-12.65-.19-23.46-.69-30.08a84.1,84.1,0,0,0-4.56-21.64,2.15,2.15,0,0,1-.59-1.67c-.48-1.31-1-2.49-1.37-3.58a37.521,37.521,0,0,1-1.72-4.9c-1.76-7.87-1.53-14.72.62-17.87a12.58,12.58,0,0,0,2.34-7.58c2.49,2.17,11.06,9.09,11.93,13.18,0,0,.89,1.41-2.49,8.07,0,0-3.75,5.53-7.08,10a1.81,1.81,0,0,0-.33.85c.39,1.73,2.32,3.49,3.12,4.21,1.63,1.48,3.89,5.17,5.72,3a65.73,65.73,0,0,0,12.1-24.09C212.19,162.08,190.9,144.8,186.77,141.65Z" transform="translate(467.602 508.59)" fill="#605f6d"/>
    <rect id="Rectángulo_3" data-name="Rectángulo 3" width="11.78" height="18.87" transform="translate(631.982 638.55)" fill="#f4cd98"/>
    <path id="Trazado_47" data-name="Trazado 47" d="M179.34,139.45a21.661,21.661,0,0,1-3.17-2.34s-4.74,2.51-6,2.9a63.863,63.863,0,0,1-5.8-2.9,22.293,22.293,0,0,1-2.66,1.77c1.73,9.52,3.81,21.12,8.46,29.72C175.92,159.9,178,149.35,179.34,139.45Z" transform="translate(467.602 508.59)" fill="#fff"/>
    <path id="Trazado_48" data-name="Trazado 48" d="M153.92,191.61l-.59,1.67A2.12,2.12,0,0,0,153.92,191.61Z" transform="translate(467.602 508.59)" fill="#605f6d"/>
    <path id="Trazado_49" data-name="Trazado 49" d="M164.77,146.12a.6.6,0,0,1-.5-.25.67.67,0,0,1,.1-.93l5.41-4.46a.62.62,0,0,1,.9.11.68.68,0,0,1-.1.93L165.17,146A.61.61,0,0,1,164.77,146.12Z" transform="translate(467.602 508.59)" fill="#b0adb2"/>
    <path id="Trazado_50" data-name="Trazado 50" d="M175.58,146.12a.61.61,0,0,1-.4-.14l-5.4-4.46a.68.68,0,0,1-.11-.93.63.63,0,0,1,.91-.11l5.4,4.46a.69.69,0,0,1,.11.93.63.63,0,0,1-.51.25Z" transform="translate(467.602 508.59)" fill="#b0adb2"/>
    <path id="Trazado_51" data-name="Trazado 51" d="M183.25,148.45,182,140a.23.23,0,0,0-.16-.17l-3-1.11h0l-1.4-.54-.2,1.11L170.18,168l-7-28.18-.4-1.64-1.36.5h0l-3,1.11a.23.23,0,0,0-.16.17l-1.22,8.49a.24.24,0,0,0,.1.24l4.71,3.08-1.84,5.1a.22.22,0,0,0,.06.24l9.5,11.29.13.15.45.52.68-.87,9.33-11.09a.22.22,0,0,0,.06-.24l-1.83-5.1,4.71-3.08A.25.25,0,0,0,183.25,148.45Z" transform="translate(467.602 508.59)" fill="#7c7c89"/>
    <path id="Trazado_52" data-name="Trazado 52" d="M159.89,206.13a4.68,4.68,0,0,1-3-1.2l-5.25-4a.9.9,0,0,1-.18-1.23.82.82,0,0,1,1.17-.18l5.36,4.07a2.76,2.76,0,0,0,3.83,0l6.92-5.92a2.35,2.35,0,0,1,1.59-.71.88.88,0,0,1,0,1.75.73.73,0,0,0-.4.2l-.09.09-6.94,5.93a4.42,4.42,0,0,1-3.01,1.2Z" transform="translate(467.602 508.59)" fill="#7c7c89"/>
    <path id="Trazado_53" data-name="Trazado 53" d="M180.66,206.13a4.43,4.43,0,0,1-3-1.21l-7-6a.66.66,0,0,0-.39-.2.88.88,0,0,1,0-1.75,2.34,2.34,0,0,1,1.58.71l6.91,5.91a2.77,2.77,0,0,0,3.84,0l.07-.07,5.29-4a.83.83,0,0,1,1.18.18A.91.91,0,0,1,189,201l-5.25,4A4.68,4.68,0,0,1,180.66,206.13Z" transform="translate(467.602 508.59)" fill="#7c7c89"/>
    <path id="Trazado_54" data-name="Trazado 54" d="M153.69,308.88a19.41,19.41,0,0,1-5,5.92c-2,2.19-2.08,3.37-.22,3.58a21.47,21.47,0,0,0,6.42-.21c5.62-1.49,8.59-5.5,9.18-5.8l.41,3.92a1.77,1.77,0,0,0,2.32-.15s1.75-11.55.2-12.72h0c.13.1-4.26,7.51-10.77,8.87-1.11.23-2.49.34-3.13-.91C152.74,310.69,153.37,309.5,153.69,308.88Z" transform="translate(467.602 508.59)" fill="#605f6d"/>
    <path id="Trazado_55" data-name="Trazado 55" d="M200.05,309a17.48,17.48,0,0,0,5.28,5.81c2,2.19,2.08,3.37.22,3.58a21.471,21.471,0,0,1-6.42-.21c-5.62-1.49-8.59-5.5-9.18-5.8l-.41,3.92a1.77,1.77,0,0,1-2.32-.15s-1.75-11.55-.2-12.72h0c-.13.1,4.26,7.51,10.77,8.87,1.11.23,2.5.34,3.13-.91C201.27,310.69,200.37,309.61,200.05,309Z" transform="translate(467.602 508.59)" fill="#605f6d"/>
    <path id="Trazado_56" data-name="Trazado 56" d="M159.2,195.37c-1.36.54-4.21-.88-5.21-1.58.83.58,6.37,3.79,3.63,5.32-1.77,1-4.34-1.29-5.61-2.17,1.27.88,1.92,1.08,2.62,2.55s-.51,1.91-1.77,1.73c-1.93-.29-4.17-1.59-5.89-2.49-2.43-1.27-1.45-3.57,0-5.55a12.33,12.33,0,0,1,3.22-3.41c1.35-.81,3.05,0,4.42.44a9.18,9.18,0,0,1,4.64,2.75c.57.72,1.19,1.6.18,2.29a1,1,0,0,1-.23.12Z" transform="translate(467.602 508.59)" fill="#f4cd98"/>
    <path id="Trazado_57" data-name="Trazado 57" d="M187.55,193.28a67.23,67.23,0,0,1,3.8,21.64Z" transform="translate(467.602 508.59)" fill="#605f6d"/>
    <path id="Trazado_58" data-name="Trazado 58" d="M181.1,195.37c1.36.54,4.21-.88,5.21-1.58-.82.58-6.37,3.79-3.63,5.32,1.77,1,4.34-1.29,5.61-2.17-1.27.88-1.91,1.08-2.62,2.55s.51,1.91,1.77,1.73c1.93-.29,4.17-1.59,5.89-2.49,2.43-1.27,1.45-3.57,0-5.55a12.33,12.33,0,0,0-3.22-3.41c-1.35-.81-3.05,0-4.41.44a9.17,9.17,0,0,0-4.65,2.75c-.57.72-1.19,1.6-.18,2.29a1,1,0,0,0,.23.12Z" transform="translate(467.602 508.59)" fill="#f4cd98"/>
    <path id="Trazado_59" data-name="Trazado 59" d="M145.75,98.92c.59,4.77-2.16,9-6.14,9.54s-7.7-3-8.29-7.76,2.16-9,6.15-9.53S145.16,94.14,145.75,98.92Z" transform="translate(467.602 508.59)" fill="#fc9"/>
    <path id="Trazado_60" data-name="Trazado 60" d="M193.32,98.92c-.59,4.77,2.16,9,6.14,9.54s7.7-3,8.29-7.76-2.16-9-6.15-9.53S193.91,94.14,193.32,98.92Z" transform="translate(467.602 508.59)" fill="#fc9"/>
    <path id="Trazado_61" data-name="Trazado 61" d="M196.37,60.44c-5.85-8.31-11.87-8.57-21.56-9H164.27c-9.7.4-15.72.66-21.57,9s-3.64,10.46-3.18,20.49c.35,7.58-4.18,2.26-1.05,23.33s21.44,27.83,31.07,27.83,26.55-5.65,31.06-27.83-1.4-15.75-1-23.33C200,70.9,202.23,68.75,196.37,60.44Z" transform="translate(467.602 508.59)" fill="#fc9"/>
    <path id="Trazado_62" data-name="Trazado 62" d="M169.06,121.62c-3.48,0-7.51-.86-9.73-3.31a1.3,1.3,0,0,1,1.93-1.74c1.56,1.73,5.11,2.68,9,2.41,3-.21,5.57-1.12,6.36-2.27a1.3,1.3,0,0,1,2.15,1.47c-1.28,1.85-4.39,3.12-8.34,3.39C170,121.6,169.54,121.62,169.06,121.62Z" transform="translate(467.602 508.59)" fill="#ba8663"/>
    <path id="Trazado_63" data-name="Trazado 63" d="M156.54,98.74c0,2.79-1.91,5.06-4.26,5.06S148,101.53,148,98.74s1.91-5.06,4.27-5.06S156.54,96,156.54,98.74Z" transform="translate(467.602 508.59)" fill="#3a1e0a"/>
    <path id="Trazado_64" data-name="Trazado 64" d="M157.65,89.76a1.3,1.3,0,0,1-1-.44,5.34,5.34,0,0,0-4-1.69A6.79,6.79,0,0,0,148,89.35a1.3,1.3,0,1,1-1.88-1.79A9.21,9.21,0,0,1,152.74,85a7.91,7.91,0,0,1,5.88,2.56,1.3,1.3,0,0,1-.11,1.84,1.27,1.27,0,0,1-.86.36Z" transform="translate(467.602 508.59)" fill="#3a1e0a"/>
    <path id="Trazado_65" data-name="Trazado 65" d="M182.48,89.61a1.26,1.26,0,0,1-.8-.28,1.28,1.28,0,0,1-.22-1.82,7.35,7.35,0,0,1,5.39-2.43,7.73,7.73,0,0,1,6.06,2.33,1.3,1.3,0,0,1-1.88,1.8A5.23,5.23,0,0,0,187,87.67a5,5,0,0,0-3.47,1.44,1.3,1.3,0,0,1-1.05.5Z" transform="translate(467.602 508.59)" fill="#3a1e0a"/>
    <path id="Trazado_66" data-name="Trazado 66" d="M191,98.74c0,2.79-1.91,5.06-4.26,5.06s-4.26-2.27-4.26-5.06,1.91-5.06,4.26-5.06S191,95.94,191,98.74Z" transform="translate(467.602 508.59)" fill="#3a1e0a"/>
    <path id="Trazado_67" data-name="Trazado 67" d="M155.5,109.78c0,2.29-2.7,4.16-6,4.16s-6-1.87-6-4.16,2.69-4.16,6-4.16S155.5,107.48,155.5,109.78Z" transform="translate(467.602 508.59)" fill="#fcb095"/>
    <path id="Trazado_68" data-name="Trazado 68" d="M195.55,109.78c0,2.29-2.69,4.16-6,4.16s-6-1.87-6-4.16,2.69-4.16,6-4.16S195.55,107.48,195.55,109.78Z" transform="translate(467.602 508.59)" fill="#fcb095"/>
    <path id="Trazado_69" data-name="Trazado 69" d="M190.26,52.61c-9.57-6.35-23.36-7-34.37-3.39-6,2-20.58,7.16-22.16,26.73C131.63,90.16,136.64,99,136.64,99s.72-12.75,25.83-19.75c16.44-4.59,22-9.78,22-9.78s1.78,7.08,8.8,14.37c9.35,9.71,8.5,17,8.5,17a29.116,29.116,0,0,0,3.76-13.33h0C207.34,78.19,205.83,62.93,190.26,52.61Z" transform="translate(467.602 508.59)" fill="#4f2f19"/>
    <path id="Trazado_70" data-name="Trazado 70" d="M190.57,45c0,11.44-8.56,13.33-19.11,13.33S152.34,55.52,152.34,45c0-7.37,8.56-13.34,19.12-13.34S190.57,37.66,190.57,45Z" transform="translate(467.602 508.59)" fill="#4f2f19"/>
    <path id="Trazado_71" data-name="Trazado 71" d="M327.23,67.24a.39.39,0,0,0-.34-.22s-2-.13-4.77-3.89a25.251,25.251,0,0,1-1.71-3.64c-1.94-4.56-5.17-12.18-10.63-17.66-6.9-6.91-17.43-10.42-31.3-10.42-25.94,0-31,15.91-31.46,17.84-1.52.87-12,7.81-10,32.63a50.39,50.39,0,0,0,5.08,19.5c3,6,2.82,9.33,2.09,11a3.39,3.39,0,0,1-2,2c-.92.29-.94.85-.9,1.07.18,1.25,3.3,2.41,5.59,2.41a5,5,0,0,0,2.64-.65,3.54,3.54,0,0,1-1.55,3.4.73.73,0,0,0-.4.84c.28,1,2.74,1.21,4.14,1.21a13.36,13.36,0,0,0,5.78-1.25,22.549,22.549,0,0,1-1.44,2.15.43.43,0,0,0-.06.38.41.41,0,0,0,.27.26,6.24,6.24,0,0,0,1.76.25c4,0,6.94-3.83,7.39-7.38a5.67,5.67,0,0,0,0-1.8c10.6.7,29.93,2,30.76,2.15a5.609,5.609,0,0,1,1,1c1.67,2,4.78,5.62,10.36,5.62a14,14,0,0,0,2-.15c2.24-.33,2.83-.54,3-1s-.14-.82-.52-1.3a6.16,6.16,0,0,1-1.45-5.36,7.73,7.73,0,0,0,2.51.45,5,5,0,0,0,3.25-1.09,1.67,1.67,0,0,0,.77-1.14c0-.43-.34-.71-.7-1-.88-.72-2.34-1.92-1.09-6.45a35.35,35.35,0,0,0,5.51-10,43.68,43.68,0,0,0,1-26.51,5.609,5.609,0,0,0,.77.06,5.52,5.52,0,0,0,4.65-2.85.4.4,0,0,0,0-.46Z" transform="translate(467.602 508.59)" fill="#331907"/>
    <path id="Trazado_72" data-name="Trazado 72" d="M306.85,46.91c-5.24-7.62-48.33-7.62-53.57,0s-5.94,17.26-5.53,26.47c.32,7,1.46,18.2,1.79,25.16,5.26,21.1,18.34,24.7,30.52,24.7s25.71-3.6,30.53-24.7c.32-7,.47-18.2.79-25.16C311.79,64.17,312.09,54.55,306.85,46.91Z" transform="translate(467.602 508.59)" fill="#e0aa79"/>
    <rect id="Rectángulo_4" data-name="Rectángulo 4" width="17.26" height="21.13" transform="translate(739.032 626.36)" fill="#e0aa79"/>
    <path id="Trazado_73" data-name="Trazado 73" d="M303.89,135.06c-4.21-1.8-9.74-3.65-17.08-6.28-1,.7-.95,1.51-.24,2.41h0l-6.5,1.33-6.5-1.33h0c.71-.9.76-1.71-.25-2.41-19,6.83-25,9.38-27.89,18.5-2.12,6.64-7.84,73.51-7.67,73.63.07,3.4.35,9.31,2.48,14.25,2.73,6.36,7,10.43,8.6,5.81.54-1.6-3.07-7.48-1.44-12.45a1.56,1.56,0,0,1,1.5-.9c.6,0,.6,5.13.76,5.73.53,2.05,3.75,1.64,3.78-.63l.07-7.62a4.26,4.26,0,0,0-1.13-3.55,5.62,5.62,0,0,1-2.13-3.8c-.42-3,.52-15.54.91-18.76,1.36-11.19,2-28.31,4.26-41l6.9,151.53-9.83,6.83s-1.77,1.71,1,1.71h19.08s2.64.15,2.64-3.42l-1.13-94.57,6-.31,6,.31-1.13,94.57c0,3.57,2.64,3.42,2.64,3.42h19.08c2.78,0,1-1.71,1-1.71l-9.83-6.83L294.64,161c0,.08,5.91-2.23,5.93-2.14C300,151.09,303.79,142.88,303.89,135.06Z" transform="translate(467.602 508.59)" fill="#e0aa79"/>
    <path id="Trazado_74" data-name="Trazado 74" d="M293.49,130.66c-.36-.13-3.34-2.47-3.34-2.47s-1.58-1.86-1.46-1.82-8.63,5.66-8.63,5.66l-8.62-5.66-1.88,1.87a40.528,40.528,0,0,1-4.28,2.9c3.71,13.42,6.27,31.17,14.78,41.82C288,161.5,289.69,144.05,293.49,130.66Z" transform="translate(467.602 508.59)" fill="#fff"/>
    <path id="Trazado_75" data-name="Trazado 75" d="M252.12,316.09c-1,.66-1,.57-.48,1.57a1.86,1.86,0,0,0,1.86.87h19.13a3.59,3.59,0,0,0,2.5-1.31c-1.78-3.79-7.59-6.09-12.66-8.24Z" transform="translate(467.602 508.59)" fill="#3c313f"/>
    <path id="Trazado_76" data-name="Trazado 76" d="M308,316.09l-9.88-7c-4.72,1.87-10,3.5-13,8.27a5,5,0,0,0,.7.57,3,3,0,0,0,1.68.56h19.13a1.86,1.86,0,0,0,1.86-.87C309,316.66,309.14,317.06,308,316.09ZM287.49,318.09Z" transform="translate(467.602 508.59)" fill="#3c313f"/>
    <path id="Trazado_77" data-name="Trazado 77" d="M298.27,309.26l4.31-94.77h-45l4.32,94.77a37.67,37.67,0,0,1,13.35,8.24,5.28,5.28,0,0,0,.45-2.86l-1.13-94.11H285.6l-1.13,94.12a4.84,4.84,0,0,0,.65,3C293.3,310.51,298.27,309.26,298.27,309.26Z" transform="translate(467.602 508.59)" fill="#797984"/>
    <path id="Trazado_78" data-name="Trazado 78" d="M257.88,132.16l-3.27-22.92,2.37-4.5-4.19-3.32v-.25l-.13.13-.13-.13v.25l-4.19,3.32,2.37,4.5-3.27,22.92,5.22,9.38Z" transform="translate(494.992 540)" fill="#3c313f"/>
    <path id="Trazado_79" data-name="Trazado 79" d="M271.27,140.71a.67.67,0,0,1-.5-.23.65.65,0,0,1,.07-.93l8.63-7.46a.66.66,0,1,1,.86,1l-8.63,7.46a.64.64,0,0,1-.43.16Z" transform="translate(467.602 508.59)" fill="#b0adb2"/>
    <path id="Trazado_80" data-name="Trazado 80" d="M288.53,140.71a.64.64,0,0,1-.43-.16l-8.63-7.46a.66.66,0,0,1,.86-1l8.63,7.46a.65.65,0,0,1,.07.93A.67.67,0,0,1,288.53,140.71Z" transform="translate(467.602 508.59)" fill="#b0adb2"/>
    <path id="Trazado_81" data-name="Trazado 81" d="M266.67,87.94c0,2.5-1.71,4.53-3.82,4.53s-3.82-2-3.82-4.53,1.71-4.54,3.82-4.54S266.67,85.43,266.67,87.94Z" transform="translate(467.602 508.59)" fill="#331907"/>
    <path id="Trazado_82" data-name="Trazado 82" d="M301.44,87.94c0,2.5-1.71,4.53-3.82,4.53s-3.83-2-3.83-4.53,1.72-4.54,3.83-4.54S301.44,85.43,301.44,87.94Z" transform="translate(467.602 508.59)" fill="#331907"/>
    <path id="Trazado_83" data-name="Trazado 83" d="M268.53,79.61a1.25,1.25,0,0,1-1-.54,4.41,4.41,0,0,0-3.15-1.15c-2.5-.18-5.18.53-5.91,1.3a1.273,1.273,0,1,1-1.84-1.76c1.53-1.61,5.23-2.28,7.94-2.08,1.67.12,3.9.6,5,2.23a1.26,1.26,0,0,1-1,2Z" transform="translate(467.602 508.59)" fill="#321806"/>
    <path id="Trazado_84" data-name="Trazado 84" d="M303.22,79.72a1.26,1.26,0,0,1-.92-.39,7.468,7.468,0,0,0-5.27-1.54,5.47,5.47,0,0,0-3.9,1.43,1.278,1.278,0,0,1-2-1.59c1.12-1.4,3.23-2.27,5.78-2.39,2.32-.1,5.44.46,7.22,2.33a1.27,1.27,0,0,1,0,1.8A1.31,1.31,0,0,1,303.22,79.72Z" transform="translate(467.602 508.59)" fill="#321806"/>
    <path id="Trazado_85" data-name="Trazado 85" d="M280.2,113.78a13,13,0,0,1-9.15-3.37,1.273,1.273,0,0,1,1.79-1.81c3.22,3.18,10.68,3.87,15.1,0a1.28,1.28,0,0,1,1.69,1.91A14.37,14.37,0,0,1,280.2,113.78Z" transform="translate(467.602 508.59)" fill="#b27d56"/>
    <path id="Trazado_86" data-name="Trazado 86" d="M320.61,179.64a337.487,337.487,0,0,0-6.49-33.51c-2.62-8.2-7.12-10.85-21.21-15.84a51.08,51.08,0,0,1-12.54,21.54,46.32,46.32,0,0,1-13.66-21.54C253.6,135,247.54,139.2,245,147.13c-2.08,6.48-7.54,67.44-7.75,72.43a.49.49,0,0,0,.4.49,29.36,29.36,0,0,0,13.17-.15.45.45,0,0,0,.28-.26.48.48,0,0,0,0-.39c-.2-.45,3.3-51.84,4.05-56.22l2.39,52.14,45,.06.63-17.46c2.66-.59,5.43-1.21,8.23-1.85C316.22,194.84,322.47,193.67,320.61,179.64ZM304.35,163c.71,4.06,2.17,13.71,2.49,18.41-.79.18-2.27.67-3.07.86Z" transform="translate(467.602 508.59)" fill="#3369aa"/>
    <path id="Trazado_87" data-name="Trazado 87" d="M296.94,131.74c-1.27-.47-2.6-1-4-1.45a51.08,51.08,0,0,1-12.54,21.54,46.32,46.32,0,0,1-13.66-21.54c-1.5.53-2.91,1-4.25,1.55,3.72,14.5,17.91,26.45,17.91,26.45S291.44,150.29,296.94,131.74Z" transform="translate(467.602 508.59)" fill="#365289"/>
    <path id="Trazado_88" data-name="Trazado 88" d="M270.35,97.06h-15a4.46,4.46,0,0,1-4.61-4.28V85.11a4.46,4.46,0,0,1,4.61-4.28h15A4.46,4.46,0,0,1,275,85.11v7.67a4.46,4.46,0,0,1-4.65,4.28Zm-15-13.81a2,2,0,0,0-2.18,1.86v7.67a2,2,0,0,0,2.18,1.85h15a2,2,0,0,0,2.19-1.85V85.11a2,2,0,0,0-2.19-1.86Z" transform="translate(467.602 508.59)" fill="#321806"/>
    <path id="Trazado_89" data-name="Trazado 89" d="M305.18,97.06h-15a4.45,4.45,0,0,1-4.61-4.28V85.11a4.45,4.45,0,0,1,4.61-4.28h15a4.45,4.45,0,0,1,4.6,4.28v7.67a4.45,4.45,0,0,1-4.6,4.28Zm-15-13.81A2,2,0,0,0,288,85.11v7.67a2,2,0,0,0,2.19,1.85h15a2,2,0,0,0,2.18-1.85V85.11a2,2,0,0,0-2.18-1.86Z" transform="translate(467.602 508.59)" fill="#321806"/>
    <path id="Trazado_90" data-name="Trazado 90" d="M286.37,88.53a1.54,1.54,0,0,1-.3,0c-.59-.13-4.59-.26-12.21-.26V85.72c5.21,0,11.66.06,12.8.33a1.28,1.28,0,0,1-.29,2.52ZM273.84,87Z" transform="translate(467.602 508.59)" fill="#321806"/>
    <path id="Trazado_91" data-name="Trazado 91" d="M309.64,88.17a1.75,1.75,0,0,1-1.62-.72,1.27,1.27,0,0,1,1.66-1.83,19.384,19.384,0,0,0,2.21-.35,11.31,11.31,0,0,1,2.33-.33,1.28,1.28,0,0,1-.08,2.55c-.24,0-1.13.16-1.77.28A15.841,15.841,0,0,1,309.64,88.17Z" transform="translate(467.602 508.59)" fill="#321806"/>
    <path id="Trazado_92" data-name="Trazado 92" d="M251.48,87.51a8,8,0,0,1-2.86-.77A8,8,0,0,0,247,86.2a1.274,1.274,0,0,1,.37-2.52,9.729,9.729,0,0,1,2.19.69,5.46,5.46,0,0,0,2,.58A1.28,1.28,0,0,1,253,86a1.26,1.26,0,0,1-1,1.47,2.49,2.49,0,0,1-.52.04Z" transform="translate(467.602 508.59)" fill="#321806"/>
    <rect id="Rectángulo_5" data-name="Rectángulo 5" width="29.95" height="39.28" transform="translate(735.462 676.735) rotate(-4.13)" fill="#fff"/>
    <path id="Trazado_93" data-name="Trazado 93" d="M268.31,190.07c-1.34.27-3.27,1-3,3.49a2.48,2.48,0,0,0,2.92,2.07,2.31,2.31,0,0,0-1.39,1.67c-.07,1.81,1.14,2.37,3.14,2.69a30.81,30.81,0,0,0,9.31.12c5.06-.74,5.66-3.7,4.83-6.9-.52-2,.36-3.77-.79-5.52-1.6-2.43-8.26-2.38-10.22-2.58-2.46-.23-6.94.28-7.25,2.88C265.62,189.84,266.68,190.4,268.31,190.07Z" transform="translate(467.602 508.59)" fill="#e0aa79"/>
    <path id="Trazado_94" data-name="Trazado 94" d="M306.84,181.42c-8.08,2.82-26.69,4.4-26.69,4.4s-.74,10,2.16,13.94c0,0,20.85-1.38,27.61-3.49S314.91,178.61,306.84,181.42Z" transform="translate(467.602 508.59)" fill="#3369aa"/>
    <path id="Trazado_95" data-name="Trazado 95" d="M311.16,45.52c-6.32-7.5-16.36-11.3-29.85-11.31h0a89.942,89.942,0,0,0-12.44.94,30,30,0,0,0-18.77,11.9c-6.47,8.91-8.27,21.44-5.37,37.25a.82.82,0,0,0,.61.64h.19a.81.81,0,0,0,.65-.32,50.85,50.85,0,0,0,8.62-21,17.88,17.88,0,0,0,10.69,6.94.55.55,0,0,0,.18,0,.82.82,0,0,0,.75-.49c.2-.46.54-2.63-2.32-12.13,4,4.07,12.75,11.24,24.88,12.62h.09a.81.81,0,0,0,.64-.31.79.79,0,0,0,.12-.78l-3-8.16a91.45,91.45,0,0,0,16.95,10.1,29.1,29.1,0,0,0,12.08,2.94,13.909,13.909,0,0,0,1.61-.08.82.82,0,0,0,.68-.67C318.27,73,320.87,57.05,311.16,45.52ZM311,46.63l-.28-.36Zm-.7-.85-.32-.37Zm-.76-.84-.35-.36ZM281.31,35h0Zm27.44,9.1-.38-.37Zm-.86-.8-.41-.36Zm-.91-.78-.44-.35Zm-1-.75-.48-.34Zm-1-.72-.51-.33Zm-1.08-.69-.63-.37Zm-1.6-.91c-.23-.12-.45-.24-.69-.35.26.14.48.26.71.38Zm-1.27-.63-.67-.31Zm-1.29-.58-.7-.28Zm-1.35-.53-.74-.27ZM297,37.25l-.77-.25Zm-1.47-.45-.82-.22ZM294,36.4l-.87-.2Zm-1.64-.4-.94-.17Zm-1.68-.3-1-.15Zm-1.75-.25-1.18-.13Zm-1.83-.2c-.52,0-1.05-.09-1.58-.12.53.07,1.06.11,1.58.16Zm-1.9-.15c-.66,0-1.32-.07-2-.08.68.05,1.34.08,2,.12Zm-6.6-.06h0Zm-2.74.15-1,.07Zm-3,.26-.92.09ZM311.38,47.1l.24.34Zm.64.89.17.26Zm1.53,2.48a1.621,1.621,0,0,1,.1.18q-.027-.071-.06-.14Zm.43.82.15.29Zm.44.9.15.32Zm.41.91.15.34Zm.38.93c.05.12.09.23.13.35a.937.937,0,0,0-.09-.31Zm.35.93.12.35ZM315,73.56Zm-1-.07h0Zm-1.38-.16h0Zm-1.27-.22L311,73Zm-1.56-.35-.27-.07ZM308,72.24l-.39-.13Zm-1.67-.59-.48-.19Zm10.1,1.92Zm.46,0Zm.3,0Zm-1.31-17.59a1.043,1.043,0,0,0,.11.34.518.518,0,0,0-.08-.39Zm.29.94.09.32Zm.25.92a.961.961,0,0,0,.08.29,1.158,1.158,0,0,0-.05-.34Zm.23.92a.3.3,0,0,0,.05.2c.05.07,0-.18-.02-.25ZM317.3,62a.994.994,0,0,1,0,.17A.994.994,0,0,0,317.3,62Zm.17,10.61v-.15a.778.778,0,0,1,0,.17Zm-.11.81Zm0-.11v-.09a.747.747,0,0,1,.02.11Zm0-.18v0Zm0-.23a.59.59,0,0,0,0-.14Zm.29-4.59Zm-.21,4Zm0-.38v-.18c0-.06.11.11.11.16Zm0-.43v-.19c0-.07.15.11.14.17Zm0-.47v-.18c0-.06.18.15.18.15Zm0-.52a.369.369,0,0,0,0-.11.37.37,0,0,1,.21.09Zm.06-1.6Zm-.31-6.09v0Zm.09.81v0Zm.08.8a2.645,2.645,0,0,1,0,.28,2.636,2.636,0,0,0,.21-.3Zm.06.79a2.653,2.653,0,0,0,0,.28,2.64,2.64,0,0,1,.21-.3Zm0,.76a2.729,2.729,0,0,1,0,.28,2.716,2.716,0,0,0,.25-.26Zm0,.75v.26c.29-.11.28-.19.28-.28Zm0,.72Z" transform="translate(467.602 508.59)" fill="#331907"/>
    <rect id="Rectángulo_6" data-name="Rectángulo 6" width="17.26" height="21.13" transform="translate(847.482 633.97)" fill="#fc9"/>
    <path id="Trazado_96" data-name="Trazado 96" d="M360.57,314.73c-.95.62-1,.54-.48,1.49A1.92,1.92,0,0,0,362,317h19.12a3.7,3.7,0,0,0,2.5-1.24c-1.78-3.59-7.58-5.75-12.66-7.79Z" transform="translate(467.602 508.59)" fill="#3c313f"/>
    <path id="Trazado_97" data-name="Trazado 97" d="M416.46,314.73l-9.88-6.58c-4.72,1.77-10,3.31-13,7.81a4.2,4.2,0,0,0,.7.55A3.1,3.1,0,0,0,396,317h19.13a1.91,1.91,0,0,0,1.86-.82C417.44,315.27,417.59,315.64,416.46,314.73ZM396,316.6Z" transform="translate(467.602 508.59)" fill="#3c313f"/>
    <path id="Trazado_98" data-name="Trazado 98" d="M406.73,308.28,411,208.74H366l4.32,99.54a38.15,38.15,0,0,1,13.35,7.78,4.66,4.66,0,0,0,.45-2.7L383,224.42h11.07l-1.13,89a4.35,4.35,0,0,0,.65,2.81C401.75,309.45,406.73,308.28,406.73,308.28Z" transform="translate(467.602 508.59)" fill="#c6a273"/>
    <path id="Trazado_99" data-name="Trazado 99" d="M414.36,150.26c-2.54-7.49-10.92-10.31-10.92-10.31L401,139l-3.74-3.52-8.82,5.72-1.81-1.08-6.76-4.64L376.15,139l-2.42,1s-7.65,3-10.19,10.44l.07,17.75,1.92,47h46.11l1.93-47Z" transform="translate(467.602 508.59)" fill="#abd1ed"/>
    <path id="Trazado_100" data-name="Trazado 100" d="M388.46,214.87a.67.67,0,0,1-.67-.67V201.34c0-3.39.15-9.66.29-15.73s.29-12.36.29-15.75c0-6.52-.15-10.32-.29-14s-.29-7.49-.29-14a.67.67,0,0,1,1.34,0c0,6.51.15,10.31.29,14s.29,7.5.29,14.05c0,3.4-.15,9.7-.29,15.78s-.29,12.33-.29,15.7V214.2A.67.67,0,0,1,388.46,214.87Z" transform="translate(467.602 508.59)" fill="#83abc9"/>
    <path id="Trazado_101" data-name="Trazado 101" d="M384.85,210.05l3.5,5.21,3.84-5.21L388.73,147a.36.36,0,0,0-.54,0Z" transform="translate(467.602 508.59)" fill="#29333d"/>
    <path id="Trazado_102" data-name="Trazado 102" d="M385.72,142.45h5.48c.34,0,.5,2,.27,2.21l-2.73,2.08a.38.38,0,0,1-.55,0l-2.75-2.08C385.23,144.4,385.4,142.45,385.72,142.45Z" transform="translate(467.602 508.59)" fill="#29333d"/>
    <path id="Trazado_103" data-name="Trazado 103" d="M397.15,246.76h25.74s.74-93.05-4.31-100.9c0-3.87-21.43-7.32-21.43-7.32Z" transform="translate(467.602 508.59)" fill="#fff"/>
    <path id="Trazado_104" data-name="Trazado 104" d="M382.64,187.23h9.93l2.94-2.55-.03-4.46-.28-20.05-12.57,17.59-.24,2.26Z" transform="translate(494.992 540)" fill="#878787"/>
    <path id="Trazado_105" data-name="Trazado 105" d="M417.19,217.43l-7.41-6,1.21-1.49c.46.47,7.49,6.06,7.49,6.06Z" transform="translate(467.602 508.59)" fill="#8cc1db"/>
    <path id="Trazado_106" data-name="Trazado 106" d="M434,187.42a7.18,7.18,0,0,0,5.27,2.7A7.38,7.38,0,0,0,446,187c.86-4.43-3.82-11.07-3.82-11.07s-17.43-28.5-24.2-30.2c-.76.46-9.76,6.54-9.76,6.54S425.3,177.64,434,187.42Z" transform="translate(467.602 508.59)" fill="#fff"/>
    <path id="Trazado_107" data-name="Trazado 107" d="M420,217.22l-10-8.05,24-28.42c.62.64,11.18,7.1,11.18,7.1Z" transform="translate(467.602 508.59)" fill="#fff"/>
    <rect id="Rectángulo_7" data-name="Rectángulo 7" width="17.83" height="2.62" transform="translate(869.732 727.23)" fill="#d9d9d9"/>
    <path id="Trazado_108" data-name="Trazado 108" d="M410.29,211.84,405,217.22a1.52,1.52,0,0,0-.54,1.42h11.9l.28-1.64Z" transform="translate(467.602 508.59)" fill="#eba897"/>
    <path id="Trazado_109" data-name="Trazado 109" d="M381.63,246.76H355.88s-.74-93.05,4.32-100.9c0-3.87,21.43-7.32,21.43-7.32Z" transform="translate(467.602 508.59)" fill="#fff"/>
    <path id="Trazado_110" data-name="Trazado 110" d="M341.35,187.23h-9.93l-2.94-2.55.03-4.46.28-20.05,12.57,17.59.24,2.26Z" transform="translate(494.992 540)" fill="#878787"/>
    <path id="Trazado_111" data-name="Trazado 111" d="M361.59,217.43l7.4-6-1.2-1.49c-.46.47-7.49,6.06-7.49,6.06Z" transform="translate(467.602 508.59)" fill="#8cc1db"/>
    <path id="Trazado_112" data-name="Trazado 112" d="M344.76,187.42a7.15,7.15,0,0,1-5.26,2.7,7.38,7.38,0,0,1-6.67-3.11c-.86-4.43,3.82-11.07,3.82-11.07s17.43-28.5,24.2-30.2c.76.46,9.76,6.54,9.76,6.54S353.48,177.64,344.76,187.42Z" transform="translate(467.602 508.59)" fill="#fff"/>
    <path id="Trazado_113" data-name="Trazado 113" d="M358.82,217.22l9.93-8.05-24-28.42c-.62.64-11.18,7.1-11.18,7.1Z" transform="translate(467.602 508.59)" fill="#fff"/>
    <rect id="Rectángulo_8" data-name="Rectángulo 8" width="17.83" height="2.62" transform="translate(826.412 727.23)" fill="#d9d9d9"/>
    <path id="Trazado_114" data-name="Trazado 114" d="M368.49,211.84l5.27,5.38a1.55,1.55,0,0,1,.55,1.42h-11.9l-.28-1.64Z" transform="translate(467.602 508.59)" fill="#eba897"/>
    <path id="Trazado_115" data-name="Trazado 115" d="M397.42,150l-9.35-7.84a.67.67,0,0,1-.09-.94.68.68,0,0,1,.95-.08l7.9,6.61,3.41-8.37a.67.67,0,1,1,1.25.47Z" transform="translate(467.602 508.59)" fill="#83abc9"/>
    <path id="Trazado_116" data-name="Trazado 116" d="M361.06,109.75l8.69,7.99,3.88-10.19-3.96-3.71Z" transform="translate(494.992 540)" fill="#83abc9"/>
    <path id="Trazado_117" data-name="Trazado 117" d="M379.36,150l9.36-7.84a.67.67,0,0,0-.86-1l-7.9,6.61-3.41-8.37a.68.68,0,0,0-.86-.4.69.69,0,0,0-.4.87Z" transform="translate(467.602 508.59)" fill="#83abc9"/>
    <path id="Trazado_118" data-name="Trazado 118" d="M360.93,109.75l-8.68,7.99-3.88-10.19,3.96-3.71Z" transform="translate(494.992 540)" fill="#83abc9"/>
    <path id="Trazado_119" data-name="Trazado 119" d="M409,96.91c-1.11,6.32,2.64,11.59,8.37,12.72A10.32,10.32,0,0,0,429.78,101c1.11-6.32-2.64-12.37-8.38-13.5S410.11,90.59,409,96.91Z" transform="translate(467.602 508.59)" fill="#ffd4ae"/>
    <path id="Trazado_120" data-name="Trazado 120" d="M369,96.91c1.11,6.32-2.63,11.59-8.37,12.72a10.3,10.3,0,0,1-12.4-8.61c-1.11-6.32,2.63-12.37,8.37-13.5S367.85,90.59,369,96.91Z" transform="translate(467.602 508.59)" fill="#ffd4ae"/>
    <path id="Trazado_121" data-name="Trazado 121" d="M417.62,54.32a31.32,31.32,0,0,0-23.62-13h-.48V41l-4.57.18L384.39,41v.37h-.48a31.32,31.32,0,0,0-23.62,13c-5.6,7.62-6.35,17.22-5.91,26.41.34,6.94,1.57,18.15,1.91,25.09,5.63,21.05,19.63,24.64,32.66,24.64s27.5-3.59,32.66-24.64c.34-6.94,1.57-18.15,1.91-25.09C424,71.54,423.22,61.94,417.62,54.32Z" transform="translate(467.602 508.59)" fill="#ffd4ae"/>
    <path id="Trazado_122" data-name="Trazado 122" d="M375.24,93.46c0,2.56-1.76,4.64-3.92,4.64s-3.91-2.08-3.91-4.64,1.75-4.65,3.91-4.65S375.24,90.89,375.24,93.46Z" transform="translate(467.602 508.59)" fill="#3a1e0a"/>
    <path id="Trazado_123" data-name="Trazado 123" d="M410.86,93.46c0,2.56-1.75,4.64-3.92,4.64S403,96,403,93.46s1.75-4.65,3.91-4.65S410.86,90.89,410.86,93.46Z" transform="translate(467.602 508.59)" fill="#3a1e0a"/>
    <path id="Trazado_124" data-name="Trazado 124" d="M365.85,84.06a1.29,1.29,0,0,1-.9-.36,1.31,1.31,0,0,1-.05-1.85c2.24-2.35,8.79-3.81,12.64-1.16a1.31,1.31,0,0,1-1.49,2.15c-2.8-1.94-7.86-.66-9.26.81a1.29,1.29,0,0,1-.94.41Z" transform="translate(467.602 508.59)" fill="#a05522"/>
    <path id="Trazado_125" data-name="Trazado 125" d="M412.69,84.17a1.31,1.31,0,0,1-.95-.41c-2-2.1-6.77-2-9.63.12a1.3,1.3,0,1,1-1.57-2.08c3.94-3,10.18-2.9,13.09.16a1.3,1.3,0,0,1-.05,1.85,1.28,1.28,0,0,1-.89.36Z" transform="translate(467.602 508.59)" fill="#a05522"/>
    <path id="Trazado_126" data-name="Trazado 126" d="M423.16,51.18c2.26-2.42,5.43-6.64,3.71-10.09-1.93-3.86-6.67-1.11-9.4.28,1.32-1.19,2.29-3.41.44-4.74-.84-.61-2.58-.21-3.52,0-2.62.6-5,2.71-7.82,2.19,1.23-2.8-2-2.38-3.74-2-3.38.64-5.79,0-9.27-.39-11.18-1.4-19.6.77-28.87,6.53.34-3-2.25-4.71-4.33-2-1.56,2-.52,5.84-.52,5.84s-5,.13-5.38,3.71c-.35,3,2.58,2.41,2.58,2.41a16.092,16.092,0,0,0-1.9,4.87,41.922,41.922,0,0,0-1.35,11.32c0,12.33,0,8.76,0,21,0,.89,0,12.27,1.79,17.33.63,1.79-.68,6.65,2.39,9.93-1.49,3.73,1,7.38,3.79,9,1.14,5.61,5.66,6.92,8.16,6.2,2,5.73,9.52,5.15,10.61,2.43a5.35,5.35,0,0,0,9.75.31s5.31,5.72,11-1.42c2.84,2.55,9.16-.21,9.3-4.24,4.87-.05,5.74-5.13,5.17-7,1.92-.09,4.64-4.64,3.59-8,4.31-7.53,3.89-22.26,3.93-22.7.73-9.61,1.1-14.81.67-23.79-.21-4.34-.13-4.26-.48-8.11a8.912,8.912,0,0,0,3.16-5.28C426.79,51.84,424.36,49.9,423.16,51.18ZM416.87,107c-2.67,3.72-6.52,6.17-11.2,6.17-2.9,0-5.69-2.8-17.51-2.8-10.08,0-13.76,2.4-18.16,2.4A12.75,12.75,0,0,1,359.21,107a13.35,13.35,0,0,1-1.66-5.18c-.1-1-.3-7.08-.31-7.61,0-1.81-.11-3.37,0-5.58.25-5.09-1.58-17.91,5.14-20.78a16.1,16.1,0,0,1,8-.91c9.41.92,18.17,5.52,34.59,2.86,9.14-1.48,11.52-3.06,14-5,1-.8,1.26,14.07,1.3,18.8,0,2.2.12,4.29,0,6.47C419.39,102.3,418,105.41,416.87,107Z" transform="translate(467.602 508.59)" fill="#d67b30"/>
    <path id="Trazado_127" data-name="Trazado 127" d="M379.31,117.12c3.84,7.74,18,5,18.95-.36Z" transform="translate(467.602 508.59)" fill="#fff"/>
    <path id="Trazado_128" data-name="Trazado 128" d="M364.4,165h5.08l-3,5.18-.67-.59,1.95-3.36a.26.26,0,0,0-.23-.39H364.4Z" transform="translate(467.602 508.59)" fill="#ff6719"/>
    <path id="Trazado_129" data-name="Trazado 129" d="M375.45,165h-5.07l3,5.18.67-.59-1.95-3.36a.26.26,0,0,1,.23-.39h3.16Z" transform="translate(467.602 508.59)" fill="#ff6719"/>
    <path id="Trazado_130" data-name="Trazado 130" d="M367.13,170.6l.73.37,1.91-3.13a.22.22,0,0,1,.35,0L372,171l.75-.43-2.88-4.76Z" transform="translate(467.602 508.59)" fill="#ff6719"/>
    <circle id="Elipse_1" data-name="Elipse 1" cx="1.22" cy="1.22" r="1.22" transform="translate(836.352 668.74)" fill="#ff6719"/>
    <path id="Trazado_131" data-name="Trazado 131" d="M366.4,163.44h.68s.07-.48-.77-.49h-.77s-.59.14-.58.46.28.47.76.53.67.08.69.19-.28.11-.32.13a.88.88,0,0,1-.31,0,.18.18,0,0,1-.15-.21h-.71s-.05.54.68.55h.91s.65-.1.66-.5-.53-.43-.67-.48-.75-.07-.77-.2.22-.12.33-.12S366.4,163.32,366.4,163.44Z" transform="translate(467.602 508.59)" fill="#ff6719"/>
    <path id="Trazado_132" data-name="Trazado 132" d="M340.06,131.54h1.87v.36h-1.18v.26h1.1v.33h-1.1v.29H342v.39h-1.94Z" transform="translate(494.992 540)" fill="#ff6719"/>
    <path id="Trazado_133" data-name="Trazado 133" d="M342.28,131.54v1.63h.7v-1.05l.91,1.01h.93v-1.56h-.68v1.07l-.94-1.1Z" transform="translate(494.992 540)" fill="#ff6719"/>
    <path id="Trazado_134" data-name="Trazado 134" d="M344.88,133.13l1.07-1.55h.82l1.02,1.55h-.78l-.16-.3-1.11.01-.14.29Z" transform="translate(494.992 540)" fill="#ff6719"/>
    <path id="Trazado_135" data-name="Trazado 135" d="M346.28,131.97l-.34.56h.73Z" transform="translate(494.992 540)" fill="#fff"/>
    <path id="Trazado_136" data-name="Trazado 136" d="M736.49,219.44c-2-.61-4.36-1.33-5.71.42-.72.94-1.88,3.68.18,3.75,1.47,0,2.5-1.84,2,1-.35,1.82-.69,3.67-1,5.49-.32,2.08.31,4.21,2.12,1.67s2.79-6,3.53-8.83C738.05,221.31,738.41,220,736.49,219.44Z" transform="translate(467.602 508.59)" fill="#ffd4ae"/>
    <path id="Trazado_137" data-name="Trazado 137" d="M733.5,224.11c-.06-4.63,0-9.12-1.11-13.19a.73.73,0,0,0-.75-.54c-3.2.14-6.43.21-9.87.21-8.75,0-15.39-1.46-25-2-.34,0-.66,1.2-.76,1.54-1.3,4.32-1.35,9.33-1.41,14.26-.09,6.87,6.42,83.46,5.44,85.5L700,310a.78.78,0,0,0,0,.58c.06.19-.63.35-.45.44a43.731,43.731,0,0,1,10.26,7,.74.74,0,0,0,.5.2.7.7,0,0,0,.42-.13c.69-.46.84-1.2.84-3.15l-.17-93.33h5.49l10,93.33c0,1.42-.21,2.4.62,3.09a.74.74,0,0,0,.79.11,83.084,83.084,0,0,0,11.11-6.47c.18-.11-.54-.29-.5-.49a.72.72,0,0,0-.13-.57,6.4,6.4,0,0,1-.46-.75C737.31,307.82,733.56,228.56,733.5,224.11Z" transform="translate(467.602 508.59)" fill="#6d4a2b"/>
    <path id="Trazado_138" data-name="Trazado 138" d="M739.37,179.61c-3.24-24.5-5.87-26.84-12.32-30.8a23.339,23.339,0,0,0-3.72-2.1L720,144.78v-8.1H708.2v8.1s-2.74,1.66-2.84,1.7c-7.86,3.21-10.7,8.29-12.88,13.67-.83,2-4.4,17.55-5.38,15.56-4-5.27-8.14-21.25-8.25-21.09l-.07.09c.61-4.5.27-10.88-2.31-11.75-3.06-1-.05,7-2.05,7-1.92-1.16-7.13-9.59-9.86-8.11-2.3,1.25,5.42,7.19,4.85,8.07s-7.16-7-9-4.8c-1.41,1.72,3.53,5,4.41,5.78.63.57,2.61,2.42,1.34,2.47a16.449,16.449,0,0,1-3.22-1.57c-.82-.47-2.92-1.55-3.53-.17-.71,1.57,2.1,2.86,2.48,3.07a40.408,40.408,0,0,1,5.16,3.3c.94.7,1.83,1.6,2.82,2.32-.2,0-.4.05-.57.05s7.2,18,11.36,24.52c3.82,5.94,9.67,7.81,14.06-.21,2.37-4.33,4-14.83,5.07-19.35.25.65-1,3.88.39,7.3s.56,15.45-1.09,22.56c-.93,4-2.54,10.62-3.75,17.4l37.34-.42a46.524,46.524,0,0,1,.56,8.2c0,1.52,4.87,3,5.56.32C741.37,210.69,740.26,186.34,739.37,179.61Zm-7.49,25.67c-.83-4.17-2.42-9.05-3.38-14.29-.74-7.47-.55-16.57-.08-17.3a6.48,6.48,0,0,0,.8-3.48C732.58,192.39,731.83,205.32,731.88,205.28Z" transform="translate(467.602 508.59)" fill="#ffd4ae"/>
    <path id="Trazado_139" data-name="Trazado 139" d="M689.9,316.26c-.93.61-.95.53-.47,1.47a1.9,1.9,0,0,0,1.84.8h18a3.59,3.59,0,0,0,2.45-1.22c-4.11-3.85-6.75-5.15-11.74-7.15C690.56,315.86,690.65,315.78,689.9,316.26Z" transform="translate(467.602 508.59)" fill="#472c18"/>
    <path id="Trazado_140" data-name="Trazado 140" d="M748.46,316.26c.93.61.95.53.47,1.47a1.9,1.9,0,0,1-1.84.8h-18a3.63,3.63,0,0,1-2.46-1.22c4.12-3.85,6.76-5.15,11.75-7.15C747.8,315.86,747.71,315.77,748.46,316.26Z" transform="translate(467.602 508.59)" fill="#472c18"/>
    <path id="Trazado_141" data-name="Trazado 141" d="M742.69,69.52c-5.86-8.31-11.87-8.56-21.57-9H710.58c-9.7.4-15.71.65-21.57,9S685.37,80,685.84,90c.35,7.58-4.18,2.27-1.05,23.34s21.43,27.83,31.06,27.83,26.56-5.65,31.07-27.83-1.4-15.76-1-23.34C746.33,80,748.55,77.83,742.69,69.52Z" transform="translate(467.602 508.59)" fill="#ffd4ae"/>
    <path id="Trazado_142" data-name="Trazado 142" d="M715.17,132.37a11,11,0,0,1-8.46-3.75,1.316,1.316,0,0,1,2-1.71,8.64,8.64,0,0,0,7.13,2.84c2.54-.15,5-1.29,6.05-2.78a1.3,1.3,0,0,1,2.15,1.47c-1.49,2.17-4.65,3.71-8,3.91Z" transform="translate(467.602 508.59)" fill="#c68e75"/>
    <path id="Trazado_143" data-name="Trazado 143" d="M702.85,108.82c0,2.8-1.9,2.37-4.26,2.37s-4.26.43-4.26-2.37,1.91-5.06,4.26-5.06S702.85,106,702.85,108.82Z" transform="translate(467.602 508.59)" fill="#3a1e0a"/>
    <path id="Trazado_144" data-name="Trazado 144" d="M704,100.78a1.27,1.27,0,0,1-1-.43,5.35,5.35,0,0,0-4-1.69,6.56,6.56,0,0,0-4.72,1.72,1.3,1.3,0,1,1-1.89-1.79,9.28,9.28,0,0,1,6.65-2.53,7.91,7.91,0,0,1,5.89,2.56,1.3,1.3,0,0,1-.11,1.84,1.28,1.28,0,0,1-.82.32Z" transform="translate(467.602 508.59)" fill="#3a1e0a"/>
    <path id="Trazado_145" data-name="Trazado 145" d="M728.79,100.69a1.33,1.33,0,0,1-.8-.27,1.31,1.31,0,0,1-.22-1.83,7.42,7.42,0,0,1,5.39-2.43,7.68,7.68,0,0,1,6.07,2.34,1.3,1.3,0,0,1-1.88,1.79,5.19,5.19,0,0,0-4.06-1.53,4.92,4.92,0,0,0-3.47,1.44,1.32,1.32,0,0,1-1.03.49Z" transform="translate(467.602 508.59)" fill="#3a1e0a"/>
    <path id="Trazado_146" data-name="Trazado 146" d="M737.32,108.82c0,2.8-1.91,2.37-4.26,2.37s-4.27.43-4.27-2.37,1.91-5.06,4.27-5.06S737.32,106,737.32,108.82Z" transform="translate(467.602 508.59)" fill="#3a1e0a"/>
    <path id="Trazado_147" data-name="Trazado 147" d="M701.81,119.86c0,2.3-2.69,4.16-6,4.16s-6-1.86-6-4.16,2.69-4.16,6-4.16S701.81,117.56,701.81,119.86Z" transform="translate(467.602 508.59)" fill="#ffb69f"/>
    <path id="Trazado_148" data-name="Trazado 148" d="M741.87,119.86c0,2.3-2.69,4.16-6,4.16s-6-1.86-6-4.16,2.7-4.16,6-4.16S741.87,117.56,741.87,119.86Z" transform="translate(467.602 508.59)" fill="#ffb69f"/>
    <path id="Trazado_149" data-name="Trazado 149" d="M749.72,62.17c-2,7.86-12.55,11.94-23.53,9.13S707.94,59.83,710,52s12.5-12,23.48-9.15S751.73,54.31,749.72,62.17Z" transform="translate(467.602 508.59)" fill="#8c233f"/>
    <path id="Trazado_150" data-name="Trazado 150" d="M732.13,118.67a10.31,10.31,0,0,1-8.66-4,19.18,19.18,0,0,1-3.18-9.16c0-5.16,16.76-5.22,16.93-5.22,6.4,0,9.51,1.11,9.51,3.38A14.493,14.493,0,0,1,732.13,118.67Zm-9.24-13.14a16.87,16.87,0,0,0,2.7,7.6,7.77,7.77,0,0,0,6.54,2.94,12,12,0,0,0,12-12.25c-.44-.31-2.32-1-6.91-1C729.77,102.85,723.56,104.44,722.89,105.53Z" transform="translate(467.602 508.59)" fill="#3a1e0a"/>
    <path id="Trazado_151" data-name="Trazado 151" d="M699.24,118.67h0a14.51,14.51,0,0,1-14.6-15c0-.85,0-3.45,9.85-3.45.68,0,16.59.06,16.59,5.29a19.149,19.149,0,0,1-3.17,9.16,10.32,10.32,0,0,1-8.67,4Zm-12-14.86a12,12,0,0,0,12,12.26,7.76,7.76,0,0,0,6.54-2.94,16.611,16.611,0,0,0,2.7-7.66c-.43-1.06-6.5-2.69-14-2.69C689.65,102.78,687.69,103.49,687.24,103.81Z" transform="translate(467.602 508.59)" fill="#3a1e0a"/>
    <path id="Trazado_152" data-name="Trazado 152" d="M710,108.28a1.3,1.3,0,0,1-.72-2.39c2.35-1.53,10.58-1.21,12.6-.36a1.3,1.3,0,0,1-1,2.39c-1.64-.69-8.82-.73-10.16.14A1.26,1.26,0,0,1,710,108.28Z" transform="translate(467.602 508.59)" fill="#3a1e0a"/>
    <path id="Trazado_153" data-name="Trazado 153" d="M753,85.48c0-13.33-5.13-25.13-20.33-29.25-22.29-6.06-45.11-2.8-55.19,17.5-4.68,9.4-5,27.53-1.29,37.36,5.22,13.74,9.73,17.83,11,18.82-4.65-19.93.13-33.06.29-33.63-.22.77,1.68,1.16,2.34,1.07,6.71-1,13-10.56,14.86-12.7-.53.61-.83,4.95,2,5.46C715.31,91.7,724,82.49,724,82.49c-.32,1.16-1,3.19,1.07,4,4.78,1.9,13-2.67,16.82-6.54,5.87,18.47,5.87,30,4.37,37.25C753,105.39,753,87.45,753,85.48Z" transform="translate(467.602 508.59)" fill="#8c233f"/>
    <path id="Trazado_154" data-name="Trazado 154" d="M729.22,170.21a8.449,8.449,0,0,0-.34-2.22C729,168.74,729.11,169.48,729.22,170.21Z" transform="translate(467.602 508.59)" fill="#89827e" stroke="#89827e" stroke-linejoin="round" stroke-width="1"/>
    <path id="Trazado_155" data-name="Trazado 155" d="M739.87,179.54c-3.22-24.29-5.74-27-12.56-31.16l-.17-.11a20.813,20.813,0,0,0-2.4-1.42.47.47,0,0,0-.58.09,13.82,13.82,0,0,1-9.82,4.13,15,15,0,0,1-10.28-4.21.51.51,0,0,0-.56-.09c-7,3.43-9.62,8.61-11.49,13.19-.26.64-.74,2.41-1.35,4.66-.9,3.3-2.5,9.22-3.33,10.57-3.11-4.28-6.27-15-7.48-19.05-.59-2-.59-2-1-2a.49.49,0,0,0-.41.22c-2.47,3.58-6.88,5.56-9,5.56h-.15a.51.51,0,0,0-.44.26c-.49.89,8.34,20.3,11.38,25,2.23,3.47,5,5.38,7.68,5.38,1.9,0,4.7-1,7.24-5.61,1.69-3.1,3-9.21,4-14.12a10.141,10.141,0,0,0,.56,2c1.36,3.38.51,15.26-1.12,22.26l-.37,1.58c-.92,3.94-2.32,9.88-3.38,15.84a.53.53,0,0,0,.11.42.5.5,0,0,0,.39.17l36.9-.41V213a45.1,45.1,0,0,1,.45,7.38c0,1.3,2,2.31,3.8,2.31h0a2.56,2.56,0,0,0,2.74-1.86C741.9,210.62,740.74,186.15,739.87,179.54Zm-11-5.6a5.19,5.19,0,0,0,.32-.62,215.943,215.943,0,0,1,2.24,27.75c-.15-.59-.31-1.19-.47-1.81-.69-2.67-1.41-5.45-1.94-8.32-.8-7.76-.52-16.23-.17-17Z" transform="translate(467.602 508.59)" fill="#ad8e6c"/>
    <path id="Trazado_156" data-name="Trazado 156" d="M538.54,159.43c0,2.89-12,2.54-31.81,2.54H490.35c-19.82,0-31.82.35-31.82-2.54l1-78.35c0-24.81,15.29-40.07,39-40.07h0c25.63,0,39,16,39,40.07Z" transform="translate(467.602 508.59)" fill="#331907"/>
    <path id="Trazado_157" data-name="Trazado 157" d="M524.85,210.13c.19-.06-2.22-53.18-3.53-59.73-.65-3.23-1.64-4.09-2.61-5.88-4.39,1.15-4.93,5.82-5.54,11.75a6,6,0,0,1-.13,2.06c1.29,11.64,1.9,25.14,2.38,36.47.12,2.86.73,16.78-.56,17.42s-1.66,2.47-1.77,3.57l-.79,6.61a1.58,1.58,0,0,0,3,.95c.22-.44.86-5.12,1.5-5s.28.13.47.74c1.29,4.17-3.32,8.76-2.88,10.1,1.27,3.89,4.42,1.33,8-3.13C525.08,222.62,525.53,216.09,524.85,210.13Z" transform="translate(467.602 508.59)" fill="#e0aa79"/>
    <path id="Trazado_158" data-name="Trazado 158" d="M513,154.79a5.459,5.459,0,0,1,.84,1.91c-.11-6-.48-10.51,3.75-12.18-2.09-2.94-4.74-6-12.68-9.6-1.85-.67-4.64.05-5.89.44-1.26-.39-4-1.11-5.9-.44-2.4,1.09-4.37,2-6,2.79A46.16,46.16,0,0,1,487,165.3a37.32,37.32,0,0,1,1.76,16.42c-.89,8.68-10.78,14.07-11,31.42-.2,16-3.68,77.43-5.87,89.52-.47,2.61-2.9,8.54-4.07,9.58-.73.64,3.5,1.81,3.5,1.81s10.66-1.71,11.1-5.1l12.17-96.86,4.5-.29,3.49.29-.07,27.37-.18,69.16c0,3.41.92,1.84.92,1.84l16.41,7.34c2.52,1.12,1.75-1.08,1.75-1.08a4.3,4.3,0,0,1-4.55-4.39,6.29,6.29,0,0,0-.77-2.84,9.49,9.49,0,0,1-2.52-5.76c-.42-8.33,2.51-39.64,4.38-63.94H518c.85-11.46,1.48-21.41,1.42-26.65-.22-17.35-9.1-22.74-10-31.42s1.08-16.17,3.22-19.36a8.3,8.3,0,0,0,1.33-3.18v-.8C513.62,157.16,513.33,156,513,154.79Z" transform="translate(467.602 508.59)" fill="#e0aa79"/>
    <path id="Trazado_159" data-name="Trazado 159" d="M513.93,159.18a3.193,3.193,0,0,0,.07-.41l-.09-.39C513.92,158.65,513.92,158.92,513.93,159.18Z" transform="translate(467.602 508.59)" fill="#e0aa79"/>
    <path id="Trazado_160" data-name="Trazado 160" d="M525.83,57.62C520,49.33,514,49.08,504.31,48.68H493.8c-9.68.4-15.68.65-21.52,8.94s-3.63,10.44-3.17,20.45c.35,7.56-4.17,2.25-1,23.27s21.38,27.77,31,27.77,26.5-5.64,31-27.77-1.4-15.71-1-23.27C529.46,68.06,531.68,65.91,525.83,57.62Z" transform="translate(467.602 508.59)" fill="#e0aa79"/>
    <path id="Trazado_161" data-name="Trazado 161" d="M484.11,158.77c.32-1.36.64-2.69,1-4A5.61,5.61,0,0,0,484.11,158.77Z" transform="translate(467.602 508.59)" fill="#fc9"/>
    <path id="Trazado_162" data-name="Trazado 162" d="M492.24,136.87v-.1a.46.46,0,0,0-.24-.32.53.53,0,0,0-.39,0,39.761,39.761,0,0,0-8.2,3c-2.66,1.88-27.63,21.51-24.86,33.6.69,3,2.67,13.28,13.75,23.79.06-.06.1-.13.16-.19a2.52,2.52,0,0,1,3.5,0,20.64,20.64,0,0,1,3-6.64c.08-.1.17-.17.25-.26-2.84-1.66-7.82-9.33-7.82-9.33-3.72-7.06-2.74-10.55-2.74-10.55,1-4.7,12.79-14.62,14.43-16.14,0,.11.25.9.24,1,2.82-5,6.46-7.56,10-12.18C492.93,140.56,492.58,138.67,492.24,136.87Z" transform="translate(467.602 508.59)" fill="#e0aa79"/>
    <path id="Trazado_163" data-name="Trazado 163" d="M513,154.79c.32,1.29.65,2.62,1,4a5.64,5.64,0,0,0-1-4Z" transform="translate(467.602 508.59)" fill="#fc9"/>
    <rect id="Rectángulo_9" data-name="Rectángulo 9" width="11.78" height="18.19" transform="translate(960.762 635.33)" fill="#e0aa79"/>
    <path id="Trazado_164" data-name="Trazado 164" d="M486.09,95.83c0,2.79-1.91,5-4.25,5s-4.26-2.26-4.26-5,1.91-5,4.26-5S486.09,93.05,486.09,95.83Z" transform="translate(467.602 508.59)" fill="#3a1e0a"/>
    <path id="Trazado_165" data-name="Trazado 165" d="M510.49,181.63c-1.84-8.31,0-11.73,2.1-14.84.43-.64,2.79-4.41,1.49-12.49a42.843,42.843,0,0,1,8-3c-.17-.66-.37-1.19-.45-1.58-1.93-9.32-11.87-11.88-14.19-14A16.609,16.609,0,0,0,505,134c-1.32,7.16-6.16,13.56-6.16,13.56s-5-7.41-5.62-13.56a16,16,0,0,1-2.56,1.59c-2,1-4.67,2-5.42,2.44a20.58,20.58,0,0,0-9.9,7c-.2.27-.45.65-.74,1.11,2.28,1.71,7.55,7.14,8.7,10h0c0,6.77,1.67,10.08,2.07,10.67,2.08,3.11,3.94,6.53,2.1,14.84a32.93,32.93,0,0,1-2.88,6.49,87.079,87.079,0,0,0-4.35,9.38c2.84,2.94,6.83,6.44,8.82,5.78,6.91-4.24,15.93-2,19.88,0,2,.66,6-2.84,8.82-5.78a89.05,89.05,0,0,0-4.35-9.38,32.926,32.926,0,0,1-2.92-6.51Z" transform="translate(467.602 508.59)" fill="#7e5a91"/>
    <path id="Trazado_166" data-name="Trazado 166" d="M487.2,87.87a1.28,1.28,0,0,1-1-.44,5.32,5.32,0,0,0-4-1.69,6.68,6.68,0,0,0-4.71,1.72,1.294,1.294,0,0,1-1.88-1.78,9.23,9.23,0,0,1,6.64-2.53,7.88,7.88,0,0,1,5.87,2.56,1.3,1.3,0,0,1-1,2.16Z" transform="translate(467.602 508.59)" fill="#3a1e0a"/>
    <path id="Trazado_167" data-name="Trazado 167" d="M512,87.72a1.31,1.31,0,0,1-.8-.27,1.29,1.29,0,0,1-.22-1.82,7.38,7.38,0,0,1,5.38-2.43,7.69,7.69,0,0,1,6,2.33,1.3,1.3,0,1,1-1.88,1.79,5.18,5.18,0,0,0-4-1.53A4.91,4.91,0,0,0,513,87.23a1.32,1.32,0,0,1-1,.49Z" transform="translate(467.602 508.59)" fill="#3a1e0a"/>
    <path id="Trazado_168" data-name="Trazado 168" d="M520.47,95.83c0,2.79-1.9,5-4.25,5s-4.25-2.26-4.25-5,1.9-5,4.25-5S520.47,93.05,520.47,95.83Z" transform="translate(467.602 508.59)" fill="#3a1e0a"/>
    <path id="Trazado_169" data-name="Trazado 169" d="M490,145.36a.66.66,0,0,1-.41-1.19l4.58-3.59a.68.68,0,0,1,.94.12.66.66,0,0,1-.12.93l-4.58,3.59a.7.7,0,0,1-.41.14Z" transform="translate(467.602 508.59)" fill="#52396d"/>
    <path id="Trazado_170" data-name="Trazado 170" d="M508.33,145.36a.67.67,0,0,1-.4-.14l-5-3.77a.67.67,0,1,1,.81-1.06l5,3.77a.66.66,0,0,1,.14.93A.67.67,0,0,1,508.33,145.36Z" transform="translate(467.602 508.59)" fill="#52396d"/>
    <path id="Trazado_171" data-name="Trazado 171" d="M515,191.28c-2.58,2.51-29.13,2.94-32,0-3.83,4-4.77,13.17-5.26,18.4-.57,6.07-.41,14.74-.41,14.82s8.17,1.88,21,1.88c13,0,21.09-1.75,21.1-1.86s.83-7.78.83-13.82C520.27,205.53,518.17,196.19,515,191.28Z" transform="translate(467.602 508.59)" fill="#52396d"/>
    <path id="Trazado_172" data-name="Trazado 172" d="M469.68,308.71a19.58,19.58,0,0,1-5,6c-1.95,2.22-2.07,3.42-.21,3.64a20.91,20.91,0,0,0,6.42-.22c5.61-1.51,8.59-5.59,9.18-5.9l.41,4a1.72,1.72,0,0,0,2.31-.16s1.75-11.74.2-12.93h0c.13.1-4.25,7.64-10.77,9-1.11.24-2.49.35-3.12-.92C468.74,310.55,469.37,309.34,469.68,308.71Z" transform="translate(467.602 508.59)" fill="#aa3131"/>
    <path id="Trazado_173" data-name="Trazado 173" d="M515.65,308.71a19.619,19.619,0,0,0,5,6c2,2.22,2.08,3.42.22,3.64a20.91,20.91,0,0,1-6.42-.22c-5.61-1.51-8.59-5.59-9.18-5.9l-.41,4a1.74,1.74,0,0,1-2.32-.16s-1.75-11.74-.19-12.93h0c-.14.1,4.25,7.64,10.77,9,1.1.24,2.49.35,3.12-.92C516.59,310.55,516,309.34,515.65,308.71Z" transform="translate(467.602 508.59)" fill="#aa3131"/>
    <path id="Trazado_174" data-name="Trazado 174" d="M485.05,106.85c0,2.29-2.69,4.14-6,4.14s-6-1.85-6-4.14,2.69-4.15,6-4.15S485.05,104.55,485.05,106.85Z" transform="translate(467.602 508.59)" fill="#dd947a"/>
    <path id="Trazado_175" data-name="Trazado 175" d="M525,106.85c0,2.29-2.68,4.14-6,4.14s-6-1.85-6-4.14,2.69-4.15,6-4.15S525,104.55,525,106.85Z" transform="translate(467.602 508.59)" fill="#dd947a"/>
    <path id="Trazado_176" data-name="Trazado 176" d="M463.34,88s30.3-6.74,57.24-25.86A92.541,92.541,0,0,1,531,100.33s10.64-42.51-15.46-51.65S457.35,53.64,463.34,88Z" transform="translate(467.602 508.59)" fill="#331907"/>
    <path id="Trazado_177" data-name="Trazado 177" d="M489.72,115.28c3.42,8.34,17.07,5.66,18-.08Z" transform="translate(467.602 508.59)" fill="#fff"/>
    <path id="Trazado_178" data-name="Trazado 178" d="M498.52,121.57h0c-4.57,0-8.21-2.21-9.72-5.91a1,1,0,0,1,.92-1.38l18-.08h0a1,1,0,0,1,1,1.16C508.09,119.25,503,121.57,498.52,121.57Zm-7.14-5.3c2,3,5.56,3.3,7.14,3.3h0c3.4,0,6.59-1.45,7.78-3.36Z" transform="translate(467.602 508.59)" fill="#a36e46"/>
    <path id="Trazado_179" data-name="Trazado 179" d="M483.94,190.94c-1.13-.34-3.7-.95-3.75-.95a4.9,4.9,0,0,1-2.68-1.72c-2.26.22-4.09,1.08-4.72,2.34A14.552,14.552,0,0,0,471,195.5a16.28,16.28,0,0,0,5.71,4.14c2,.73.71-.31,5.67,2.49,1.22.69,2.75-.22,2-1.83-.33-.66-2.39-2-2.75-2.38,2,.48,4.42,3.09,5.72,2.47,3.41-1.61-3-5.71-5.53-6.15a9.07,9.07,0,0,1,5.3,2,1.73,1.73,0,0,0,2.22.07c.75-.7.43-1.66-.19-2.42A10.28,10.28,0,0,0,483.94,190.94Z" transform="translate(467.602 508.59)" fill="#e0aa79"/>
    <path id="Trazado_180" data-name="Trazado 180" d="M490.05,144.52l.52-8.12Z" transform="translate(467.602 508.59)" fill="#fff" stroke="#52396d" stroke-linecap="round" stroke-miterlimit="10" stroke-width="1.4"/>
    <path id="Trazado_181" data-name="Trazado 181" d="M508.44,144.52l-.49-7.58Z" transform="translate(467.602 508.59)" fill="#fff" stroke="#52396d" stroke-linecap="round" stroke-miterlimit="10" stroke-width="1.4"/>
    <path id="Trazado_182" data-name="Trazado 182" d="M37.32,343.64H30.79v6.07h7.3v1.83h-9.5V334.69h9.13v1.83H30.79v5.32h6.53Z" transform="translate(467.602 508.59)"/>
    <path id="Trazado_183" data-name="Trazado 183" d="M40.84,333.79H43v17.75H40.8Z" transform="translate(467.602 508.59)"/>
    <path id="Trazado_184" data-name="Trazado 184" d="M52,343.21c0-1.42,0-2.65-.1-3.77h1.93l.1,2.4H54a3.65,3.65,0,0,1,3.38-2.65,3.829,3.829,0,0,1,.6.05v2.07a3.448,3.448,0,0,0-.75-.05,3.06,3.06,0,0,0-3,2.8,6.631,6.631,0,0,0-.08,1v6.45H52Z" transform="translate(467.602 508.59)"/>
    <path id="Trazado_185" data-name="Trazado 185" d="M61.19,345.89c.05,3,1.93,4.2,4.15,4.2a7.841,7.841,0,0,0,3.35-.63l.4,1.58a9.83,9.83,0,0,1-4,.77c-3.72,0-6-2.47-6-6.12s2.15-6.5,5.68-6.5c4,0,5,3.45,5,5.67a5.35,5.35,0,0,1-.08,1Zm6.45-1.58c0-1.37-.57-3.55-3-3.55-2.25,0-3.2,2-3.37,3.55Z" transform="translate(467.602 508.59)"/>
    <path id="Trazado_186" data-name="Trazado 186" d="M72.19,349.31a6.25,6.25,0,0,0,2.93.85c1.57,0,2.32-.77,2.32-1.8s-.62-1.6-2.22-2.2c-2.2-.8-3.23-2-3.23-3.42,0-1.95,1.6-3.55,4.18-3.55a5.58,5.58,0,0,1,3,.75l-.53,1.6a4.66,4.66,0,0,0-2.47-.73c-1.3,0-2,.75-2,1.65s.7,1.45,2.27,2.08c2.08.77,3.18,1.82,3.18,3.62,0,2.15-1.68,3.65-4.5,3.65a6.88,6.88,0,0,1-3.4-.85Z" transform="translate(467.602 508.59)"/>
    <path id="Trazado_187" data-name="Trazado 187" d="M82.39,343.39c0-1.55,0-2.8-.1-3.95h1.95l.13,2.07h0a4.7,4.7,0,0,1,4.3-2.32c3,0,5.15,2.47,5.15,6.12,0,4.35-2.68,6.5-5.53,6.5a4.23,4.23,0,0,1-3.72-1.9h-.05v6.58H82.39Zm2.18,3.22a3.18,3.18,0,0,0,.1.9,3.39,3.39,0,0,0,3.3,2.58c2.32,0,3.67-1.9,3.67-4.68,0-2.4-1.27-4.47-3.6-4.47a3.46,3.46,0,0,0-3.32,2.7,3.311,3.311,0,0,0-.15.87Z" transform="translate(467.602 508.59)"/>
    <path id="Trazado_188" data-name="Trazado 188" d="M107.56,345.39c0,4.47-3.12,6.42-6,6.42-3.25,0-5.8-2.4-5.8-6.22,0-4,2.68-6.4,6-6.4C105.22,339.19,107.56,341.71,107.56,345.39Zm-9.57.12c0,2.65,1.5,4.65,3.65,4.65s3.68-2,3.68-4.7c0-2-1-4.62-3.63-4.62S98,343.24,98,345.51Z" transform="translate(467.602 508.59)"/>
    <path id="Trazado_189" data-name="Trazado 189" d="M110.34,342.71c0-1.27,0-2.27-.1-3.27h2l.13,2h.05a4.47,4.47,0,0,1,4-2.25c1.67,0,4.27,1,4.27,5.15v7.2h-2.2v-7c0-1.95-.72-3.57-2.8-3.57a3.17,3.17,0,0,0-3,2.25,3.129,3.129,0,0,0-.15,1v7.28h-2.2Z" transform="translate(467.602 508.59)"/>
    <path id="Trazado_190" data-name="Trazado 190" d="M123.92,349.31a6.18,6.18,0,0,0,2.92.85c1.58,0,2.33-.77,2.33-1.8s-.63-1.6-2.23-2.2c-2.2-.8-3.22-2-3.22-3.42,0-1.95,1.6-3.55,4.17-3.55a5.56,5.56,0,0,1,3,.75l-.52,1.6a4.7,4.7,0,0,0-2.48-.73c-1.3,0-2,.75-2,1.65s.7,1.45,2.28,2.08c2.07.77,3.17,1.82,3.17,3.62,0,2.15-1.67,3.65-4.5,3.65a6.91,6.91,0,0,1-3.4-.85Z" transform="translate(467.602 508.59)"/>
    <path id="Trazado_191" data-name="Trazado 191" d="M142.62,348.64a21.162,21.162,0,0,0,.17,2.9h-2l-.18-1.53h-.07a4.52,4.52,0,0,1-3.7,1.8,3.44,3.44,0,0,1-3.7-3.47c0-2.93,2.6-4.53,7.27-4.5v-.25a2.48,2.48,0,0,0-2.75-2.78,5.86,5.86,0,0,0-3.17.9l-.5-1.47a7.87,7.87,0,0,1,4-1.05c3.7,0,4.6,2.52,4.6,4.92Zm-2.13-3.28c-2.4-.05-5.12.38-5.12,2.73a1.93,1.93,0,0,0,2,2.1,3,3,0,0,0,3-2,2.311,2.311,0,0,0,.1-.7Z" transform="translate(467.602 508.59)"/>
    <path id="Trazado_192" data-name="Trazado 192" d="M146.17,333.79h2.17v7.6h0a4.5,4.5,0,0,1,4.13-2.2c3,0,5.12,2.5,5.12,6.15,0,4.32-2.75,6.47-5.45,6.47a4.37,4.37,0,0,1-4.07-2.25h-.05l-.13,2h-1.87c.05-.83.1-2.05.1-3.13Zm2.17,12.9a3,3,0,0,0,.1.8,3.37,3.37,0,0,0,3.3,2.57c2.33,0,3.68-1.87,3.68-4.65,0-2.42-1.25-4.49-3.63-4.49a3.52,3.52,0,0,0-3.32,2.69,3.321,3.321,0,0,0-.13.93Z" transform="translate(467.602 508.59)"/>
    <path id="Trazado_193" data-name="Trazado 193" d="M160.39,333.79h2.2v17.75h-2.2Z" transform="translate(467.602 508.59)"/>
    <path id="Trazado_194" data-name="Trazado 194" d="M167.52,345.89a3.828,3.828,0,0,0,4.15,4.2,7.82,7.82,0,0,0,3.34-.63l.4,1.58a9.82,9.82,0,0,1-4,.77c-3.73,0-6-2.47-6-6.12s2.15-6.5,5.67-6.5c4,0,5,3.45,5,5.67a5.349,5.349,0,0,1-.08,1Zm6.44-1.58c0-1.37-.57-3.55-3-3.55-2.25,0-3.2,2-3.38,3.55Z" transform="translate(467.602 508.59)"/>
    <path id="Trazado_195" data-name="Trazado 195" d="M194.54,333.79v14.62c0,1.08.05,2.3.1,3.13h-1.95l-.1-2.1h-.08a4.35,4.35,0,0,1-4.07,2.37c-2.92,0-5.2-2.47-5.2-6.15,0-4,2.5-6.47,5.43-6.47a4,4,0,0,1,3.64,1.82h.05v-7.22Zm-2.18,10.57a3.6,3.6,0,0,0-.1-.92,3.22,3.22,0,0,0-3.17-2.52c-2.27,0-3.62,2-3.62,4.64,0,2.45,1.22,4.48,3.57,4.48a3.32,3.32,0,0,0,3.22-2.63,3.6,3.6,0,0,0,.1-1Z" transform="translate(467.602 508.59)"/>
    <path id="Trazado_196" data-name="Trazado 196" d="M199.44,345.89c.05,3,1.93,4.2,4.15,4.2a7.841,7.841,0,0,0,3.35-.63l.4,1.58a9.911,9.911,0,0,1-4.05.77c-3.72,0-5.95-2.47-5.95-6.12s2.15-6.5,5.68-6.5c4,0,5,3.45,5,5.67a5.5,5.5,0,0,1-.07,1Zm6.45-1.58c0-1.37-.58-3.55-3-3.55-2.25,0-3.2,2-3.37,3.55Z" transform="translate(467.602 508.59)"/>
    <path id="Trazado_197" data-name="Trazado 197" d="M216,333.79h2.2v17.75H216Z" transform="translate(467.602 508.59)"/>
    <path id="Trazado_198" data-name="Trazado 198" d="M230.44,348.64a21.162,21.162,0,0,0,.17,2.9h-2l-.18-1.53h-.07a4.51,4.51,0,0,1-3.7,1.8,3.44,3.44,0,0,1-3.7-3.47c0-2.93,2.6-4.53,7.27-4.5v-.25a2.48,2.48,0,0,0-2.74-2.78,5.89,5.89,0,0,0-3.18.9l-.5-1.47a7.9,7.9,0,0,1,4-1.05c3.7,0,4.6,2.52,4.6,4.92Zm-2.13-3.28c-2.39-.05-5.12.38-5.12,2.73a1.93,1.93,0,0,0,2.05,2.1,3,3,0,0,0,3-2,2.31,2.31,0,0,0,.1-.7Z" transform="translate(467.602 508.59)"/>
    <path id="Trazado_199" data-name="Trazado 199" d="M240.52,345.89a3.825,3.825,0,0,0,4.14,4.2,7.841,7.841,0,0,0,3.35-.63l.4,1.58a9.83,9.83,0,0,1-4,.77c-3.72,0-5.94-2.47-5.94-6.12s2.15-6.5,5.67-6.5c4,0,5,3.45,5,5.67a5.349,5.349,0,0,1-.08,1Zm6.44-1.58c0-1.37-.57-3.55-3.05-3.55-2.24,0-3.19,2-3.37,3.55Z" transform="translate(467.602 508.59)"/>
    <path id="Trazado_200" data-name="Trazado 200" d="M248.84,355.09a3.41,3.41,0,0,0,2.4-.95c.6-.68.85-1.63.85-4.53V339.44h2.2v11c0,2.35-.37,3.88-1.45,5a5.59,5.59,0,0,1-3.75,1.37Zm5.7-19a1.36,1.36,0,0,1-2.72,0,1.33,1.33,0,0,1,1.37-1.37,1.31,1.31,0,0,1,1.35,1.28Z" transform="translate(467.602 508.59)"/>
    <path id="Trazado_201" data-name="Trazado 201" d="M259.12,345.89c.05,3,1.92,4.2,4.14,4.2a7.841,7.841,0,0,0,3.35-.63L267,351a9.829,9.829,0,0,1-4.05.77c-3.72,0-5.94-2.47-5.94-6.12s2.15-6.5,5.67-6.5c4,0,5,3.45,5,5.67a5.352,5.352,0,0,1-.08,1Zm6.44-1.58c0-1.37-.57-3.55-3.05-3.55-2.25,0-3.2,2-3.37,3.55Z" transform="translate(467.602 508.59)"/>
    <path id="Trazado_202" data-name="Trazado 202" d="M279,351.11a8.45,8.45,0,0,1-3.48.7c-3.64,0-6-2.47-6-6.17a6.16,6.16,0,0,1,6.5-6.45,6.86,6.86,0,0,1,3,.65l-.5,1.67a5.47,5.47,0,0,0-2.55-.57c-2.78,0-4.27,2.07-4.27,4.57,0,2.8,1.79,4.53,4.19,4.53a6.2,6.2,0,0,0,2.7-.58Z" transform="translate(467.602 508.59)"/>
    <path id="Trazado_203" data-name="Trazado 203" d="M291.74,348.21c0,1.28,0,2.38.1,3.33h-1.95l-.13-2h-.05a4.51,4.51,0,0,1-4,2.25c-1.9,0-4.17-1.07-4.17-5.3v-7.07h2.2v6.67c0,2.3.72,3.88,2.7,3.88a3.17,3.17,0,0,0,2.9-2,3.111,3.111,0,0,0,.2-1.12v-7.4h2.2Z" transform="translate(467.602 508.59)"/>
    <path id="Trazado_204" data-name="Trazado 204" d="M304,351.11a8.39,8.39,0,0,1-3.47.7c-3.65,0-6-2.47-6-6.17a6.16,6.16,0,0,1,6.49-6.45,6.86,6.86,0,0,1,3.05.65l-.5,1.67a5.44,5.44,0,0,0-2.55-.57c-2.77,0-4.27,2.07-4.27,4.57,0,2.8,1.8,4.53,4.2,4.53a6.231,6.231,0,0,0,2.7-.58Z" transform="translate(467.602 508.59)"/>
    <path id="Trazado_205" data-name="Trazado 205" d="M309,336a1.32,1.32,0,0,1-1.4,1.35,1.29,1.29,0,0,1-1.32-1.35,1.36,1.36,0,1,1,2.72,0Zm-2.45,15.5V339.4h2.2v12.1Z" transform="translate(467.602 508.59)"/>
    <path id="Trazado_206" data-name="Trazado 206" d="M323.39,345.39c0,4.47-3.13,6.42-6,6.42-3.25,0-5.8-2.4-5.8-6.22,0-4,2.68-6.4,6-6.4C321,339.19,323.39,341.71,323.39,345.39Zm-9.58.12c0,2.65,1.5,4.65,3.65,4.65s3.68-2,3.68-4.7c0-2-1-4.62-3.63-4.62s-3.7,2.4-3.7,4.67Zm6.95-11.29-3.05,3.57h-1.55l2.18-3.57Z" transform="translate(467.602 508.59)"/>
    <path id="Trazado_207" data-name="Trazado 207" d="M326.17,342.71a29.9,29.9,0,0,0-.11-3.27H328l.13,2h.05a4.47,4.47,0,0,1,4-2.25c1.67,0,4.27,1,4.27,5.15v7.2h-2.2v-7c0-1.95-.72-3.57-2.8-3.57a3.17,3.17,0,0,0-2.95,2.25,3.13,3.13,0,0,0-.15,1v7.28h-2.19Z" transform="translate(467.602 508.59)"/>
    <path id="Trazado_208" data-name="Trazado 208" d="M355.76,333.79v14.62c0,1.08.05,2.3.1,3.13h-1.95l-.1-2.1h-.07a4.37,4.37,0,0,1-4.08,2.37c-2.92,0-5.2-2.47-5.2-6.15,0-4,2.5-6.47,5.43-6.47a4.06,4.06,0,0,1,3.65,1.82h0v-7.22Zm-2.17,10.57a4.119,4.119,0,0,0-.1-.92,3.24,3.24,0,0,0-3.18-2.52c-2.27,0-3.62,2-3.62,4.64,0,2.45,1.22,4.48,3.57,4.48a3.33,3.33,0,0,0,3.23-2.63,4.069,4.069,0,0,0,.1-1Z" transform="translate(467.602 508.59)"/>
    <path id="Trazado_209" data-name="Trazado 209" d="M360.66,345.89a3.832,3.832,0,0,0,4.15,4.2,7.841,7.841,0,0,0,3.35-.63l.4,1.58a9.83,9.83,0,0,1-4.05.77c-3.72,0-5.95-2.47-5.95-6.12s2.15-6.5,5.68-6.5c4,0,5,3.45,5,5.67a5.349,5.349,0,0,1-.08,1Zm6.45-1.58c0-1.37-.57-3.55-3.05-3.55-2.25,0-3.2,2-3.37,3.55Z" transform="translate(467.602 508.59)"/>
    <path id="Trazado_210" data-name="Trazado 210" d="M377.26,333.79h2.2v17.75h-2.2Z" transform="translate(467.602 508.59)"/>
    <path id="Trazado_211" data-name="Trazado 211" d="M391.66,348.64a19.6,19.6,0,0,0,.18,2.9h-2l-.17-1.53h-.08a4.49,4.49,0,0,1-3.7,1.8,3.44,3.44,0,0,1-3.7-3.47c0-2.93,2.6-4.53,7.28-4.5v-.25a2.48,2.48,0,0,0-2.75-2.78,5.89,5.89,0,0,0-3.18.9l-.5-1.47a7.9,7.9,0,0,1,4-1.05c3.7,0,4.6,2.52,4.6,4.92Zm-2.12-3.28c-2.4-.05-5.13.38-5.13,2.73a1.93,1.93,0,0,0,2,2.1,3.06,3.06,0,0,0,3-2,2.682,2.682,0,0,0,.1-.7Z" transform="translate(467.602 508.59)"/>
    <path id="Trazado_212" data-name="Trazado 212" d="M400.74,351.54V341.11h-1.68v-1.67h1.68v-.57a5.83,5.83,0,0,1,1.4-4.23,4.19,4.19,0,0,1,2.95-1.12,4.85,4.85,0,0,1,1.87.35l-.3,1.7a3.171,3.171,0,0,0-1.4-.28c-1.87,0-2.35,1.63-2.35,3.5v.65h2.93v1.67h-2.93v10.43Z" transform="translate(467.602 508.59)"/>
    <path id="Trazado_213" data-name="Trazado 213" d="M418.44,345.39c0,4.47-3.13,6.42-6,6.42-3.25,0-5.79-2.4-5.79-6.22,0-4,2.67-6.4,6-6.4C416.09,339.19,418.44,341.71,418.44,345.39Zm-9.58.12c0,2.65,1.5,4.65,3.65,4.65s3.68-2,3.68-4.7c0-2-1-4.62-3.63-4.62s-3.7,2.4-3.7,4.67Z" transform="translate(467.602 508.59)"/>
    <path id="Trazado_214" data-name="Trazado 214" d="M421.21,343.21c0-1.42,0-2.65-.1-3.77H423l.1,2.4h.07a3.65,3.65,0,0,1,3.38-2.65,3.83,3.83,0,0,1,.6.05v2.07a3.448,3.448,0,0,0-.75-.05,3.06,3.06,0,0,0-2.95,2.8,6.63,6.63,0,0,0-.08,1v6.45h-2.2Z" transform="translate(467.602 508.59)"/>
    <path id="Trazado_215" data-name="Trazado 215" d="M429.49,342.71c0-1.27-.05-2.27-.1-3.27h1.92l.1,2h.08a4.16,4.16,0,0,1,3.82-2.23,3.56,3.56,0,0,1,3.4,2.42h.05a5,5,0,0,1,1.38-1.57,4,4,0,0,1,2.65-.85c1.62,0,4,1.05,4,5.25v7.1h-2.15v-6.83c0-2.35-.87-3.72-2.62-3.72a2.88,2.88,0,0,0-2.62,2,3.781,3.781,0,0,0-.18,1.1v7.48h-2.15v-7.25c0-1.93-.85-3.3-2.52-3.3a3.26,3.26,0,0,0-2.9,3.27v7.28H429.5Z" transform="translate(467.602 508.59)"/>
    <path id="Trazado_216" data-name="Trazado 216" d="M458.84,348.64a21.169,21.169,0,0,0,.17,2.9h-2l-.18-1.53h-.07a4.52,4.52,0,0,1-3.7,1.8,3.44,3.44,0,0,1-3.7-3.47c0-2.93,2.6-4.53,7.27-4.5v-.25a2.48,2.48,0,0,0-2.75-2.78,5.86,5.86,0,0,0-3.17.9l-.5-1.47a7.87,7.87,0,0,1,4-1.05c3.7,0,4.6,2.52,4.6,4.92Zm-2.13-3.28c-2.4-.05-5.12.38-5.12,2.73a1.93,1.93,0,0,0,2.05,2.1,3,3,0,0,0,3-2,2.31,2.31,0,0,0,.1-.7Z" transform="translate(467.602 508.59)"/>
    <path id="Trazado_217" data-name="Trazado 217" d="M471,351.11a8.39,8.39,0,0,1-3.47.7c-3.65,0-6-2.47-6-6.17a6.16,6.16,0,0,1,6.5-6.45,6.859,6.859,0,0,1,3.05.65l-.5,1.67a5.44,5.44,0,0,0-2.55-.57c-2.77,0-4.27,2.07-4.27,4.57,0,2.8,1.8,4.53,4.2,4.53a6.231,6.231,0,0,0,2.7-.58Z" transform="translate(467.602 508.59)"/>
    <path id="Trazado_218" data-name="Trazado 218" d="M476,336a1.32,1.32,0,0,1-1.4,1.35,1.3,1.3,0,0,1-1.33-1.35,1.34,1.34,0,0,1,1.38-1.37A1.32,1.32,0,0,1,476,336Zm-2.45,15.5V339.4h2.2v12.1Z" transform="translate(467.602 508.59)"/>
    <path id="Trazado_219" data-name="Trazado 219" d="M490.38,345.39c0,4.47-3.12,6.42-6,6.42-3.25,0-5.8-2.4-5.8-6.22,0-4,2.68-6.4,6-6.4C488,339.19,490.38,341.71,490.38,345.39Zm-9.57.12c0,2.65,1.5,4.65,3.65,4.65s3.68-2,3.68-4.7c0-2-1-4.62-3.63-4.62S480.81,343.24,480.81,345.51Zm6.95-11.29-3.05,3.57h-1.55l2.18-3.57Z" transform="translate(467.602 508.59)"/>
    <path id="Trazado_220" data-name="Trazado 220" d="M493.16,342.71c0-1.27,0-2.27-.1-3.27H495l.13,2h.05a4.47,4.47,0,0,1,4-2.25c1.67,0,4.27,1,4.27,5.15v7.2h-2.2v-7c0-1.95-.72-3.57-2.8-3.57a3.17,3.17,0,0,0-2.95,2.25,3.129,3.129,0,0,0-.15,1v7.28h-2.2Z" transform="translate(467.602 508.59)"/>
    <path id="Trazado_221" data-name="Trazado 221" d="M513.19,339.44l2.37,6.77c.4,1.13.73,2.13,1,3.13h.07c.28-1,.63-2,1-3.13l2.35-6.77h2.3l-4.75,12.1h-2.1l-4.6-12.1Z" transform="translate(467.602 508.59)"/>
    <path id="Trazado_222" data-name="Trazado 222" d="M526.81,336a1.31,1.31,0,0,1-1.4,1.35,1.29,1.29,0,0,1-1.32-1.35,1.36,1.36,0,1,1,2.72,0Zm-2.45,15.5V339.4h2.2v12.1Z" transform="translate(467.602 508.59)"/>
    <path id="Trazado_223" data-name="Trazado 223" d="M530.21,343.21c0-1.42,0-2.65-.1-3.77H532l.1,2.4h.07a3.65,3.65,0,0,1,3.37-2.65,3.724,3.724,0,0,1,.6.05v2.07a3.358,3.358,0,0,0-.75-.05,3.06,3.06,0,0,0-2.94,2.8,6.634,6.634,0,0,0-.08,1v6.45h-2.2Z" transform="translate(467.602 508.59)"/>
    <path id="Trazado_224" data-name="Trazado 224" d="M541.63,336.54v2.9h3.15v1.67h-3.15v6.53c0,1.5.43,2.35,1.65,2.35a4.17,4.17,0,0,0,1.28-.15l.1,1.67a6,6,0,0,1-1.95.3,3.17,3.17,0,0,1-2.38-.92,4.8,4.8,0,0,1-.84-3.18v-6.6h-1.88v-1.67h1.88v-2.25Z" transform="translate(467.602 508.59)"/>
    <path id="Trazado_225" data-name="Trazado 225" d="M557.38,348.21c0,1.28,0,2.38.1,3.33h-2l-.12-2h0a4.51,4.51,0,0,1-4,2.25c-1.9,0-4.17-1.07-4.17-5.3v-7.07h2.19v6.67c0,2.3.73,3.88,2.7,3.88a3.16,3.16,0,0,0,2.9-2,2.91,2.91,0,0,0,.2-1.12v-7.4h2.2Z" transform="translate(467.602 508.59)"/>
    <path id="Trazado_226" data-name="Trazado 226" d="M569.53,348.64a19.592,19.592,0,0,0,.18,2.9h-2l-.17-1.53h-.08a4.49,4.49,0,0,1-3.7,1.8,3.44,3.44,0,0,1-3.7-3.47c0-2.93,2.6-4.53,7.28-4.5v-.25a2.48,2.48,0,0,0-2.75-2.78,5.89,5.89,0,0,0-3.18.9l-.5-1.47a7.9,7.9,0,0,1,4-1.05c3.7,0,4.6,2.52,4.6,4.92Zm-2.12-3.28c-2.4-.05-5.13.38-5.13,2.73a1.93,1.93,0,0,0,2.05,2.1,3.06,3.06,0,0,0,3-2,2.681,2.681,0,0,0,.1-.7Z" transform="translate(467.602 508.59)"/>
    <path id="Trazado_227" data-name="Trazado 227" d="M573.08,333.79h2.2v17.75h-2.2Z" transform="translate(467.602 508.59)"/>
    <path id="Trazado_228" data-name="Trazado 228" d="M585.51,345.89a3.828,3.828,0,0,0,4.15,4.2,7.88,7.88,0,0,0,3.35-.63l.4,1.58a9.91,9.91,0,0,1-4,.77c-3.73,0-6-2.47-6-6.12s2.15-6.5,5.67-6.5c4,0,5,3.45,5,5.67a5.5,5.5,0,0,1-.07,1Zm6.45-1.58c0-1.37-.58-3.55-3.05-3.55-2.25,0-3.2,2-3.38,3.55Z" transform="translate(467.602 508.59)"/>
    <path id="Trazado_229" data-name="Trazado 229" d="M596.81,342.71c0-1.27,0-2.27-.1-3.27h1.95l.12,2h.05a4.47,4.47,0,0,1,4-2.25c1.68,0,4.28,1,4.28,5.15v7.2h-2.2v-7c0-1.95-.73-3.57-2.8-3.57a3.23,3.23,0,0,0-3.1,3.27v7.28h-2.2Z" transform="translate(467.602 508.59)"/>
    <path id="Trazado_230" data-name="Trazado 230" d="M617.21,345.89a3.828,3.828,0,0,0,4.15,4.2,7.88,7.88,0,0,0,3.35-.63l.4,1.58a9.911,9.911,0,0,1-4.05.77c-3.73,0-5.95-2.47-5.95-6.12s2.15-6.5,5.67-6.5c4,0,5,3.45,5,5.67a5.5,5.5,0,0,1-.07,1Zm6.45-1.58c0-1.37-.58-3.55-3-3.55-2.25,0-3.2,2-3.38,3.55Z" transform="translate(467.602 508.59)"/>
    <path id="Trazado_231" data-name="Trazado 231" d="M628.51,333.79h2.2v17.75h-2.2Z" transform="translate(467.602 508.59)"/>
    <path id="Trazado_232" data-name="Trazado 232" d="M639.51,348.89a7.39,7.39,0,0,0,3.87,1.1c2.22,0,3.52-1.18,3.52-2.88s-.9-2.47-3.17-3.32c-2.75-1-4.45-2.45-4.45-4.8,0-2.62,2.18-4.57,5.45-4.57a7.62,7.62,0,0,1,3.7.82l-.6,1.78a6.189,6.189,0,0,0-3.17-.8c-2.3,0-3.18,1.37-3.18,2.52,0,1.57,1,2.35,3.35,3.25,2.85,1.1,4.27,2.47,4.27,4.95s-1.9,4.87-5.87,4.87a8.71,8.71,0,0,1-4.3-1.1Z" transform="translate(467.602 508.59)"/>
    <path id="Trazado_233" data-name="Trazado 233" d="M660.8,343.64h-6.52v6.07h7.3v1.83h-9.5V334.69h9.12v1.83h-6.92v5.32h6.52Z" transform="translate(467.602 508.59)"/>
    <path id="Trazado_234" data-name="Trazado 234" d="M664.41,351.54V334.69h2.4l5.37,8.52a48.842,48.842,0,0,1,3,5.48h.07c-.2-2.25-.25-4.3-.25-6.92v-7.05h2v16.85h-2.2L669.5,343a51.385,51.385,0,0,1-3.12-5.62h-.07c.12,2.12.15,4.15.15,6.95v7.2Z" transform="translate(467.602 508.59)"/>
    <path id="Trazado_235" data-name="Trazado 235" d="M683.58,346.24l-1.75,5.3h-2.25l5.75-16.85h2.6l5.75,16.85h-2.33l-1.8-5.3Zm5.55-1.7-1.67-4.85c-.38-1.1-.63-2.1-.88-3.07h-.05c-.25,1-.5,2-.85,3.05L684,344.54Z" transform="translate(467.602 508.59)"/>
    <path id="Trazado_236" data-name="Trazado 236" d="M702.61,345.89a3.825,3.825,0,0,0,4.14,4.2,7.841,7.841,0,0,0,3.35-.63l.4,1.58a9.82,9.82,0,0,1-4,.77c-3.73,0-6-2.47-6-6.12s2.15-6.5,5.67-6.5c4,0,5,3.45,5,5.67a5.352,5.352,0,0,1-.08,1Zm6.44-1.58c0-1.37-.57-3.55-3-3.55-2.24,0-3.19,2-3.37,3.55Z" transform="translate(467.602 508.59)"/>
    <path id="Trazado_237" data-name="Trazado 237" d="M713.61,349.31a6.181,6.181,0,0,0,2.92.85c1.57,0,2.32-.77,2.32-1.8s-.62-1.6-2.22-2.2c-2.2-.8-3.22-2-3.22-3.42,0-1.95,1.59-3.55,4.17-3.55a5.58,5.58,0,0,1,2.95.75l-.53,1.6a4.66,4.66,0,0,0-2.47-.73c-1.3,0-2,.75-2,1.65s.7,1.45,2.27,2.08c2.08.77,3.18,1.82,3.18,3.62,0,2.15-1.68,3.65-4.5,3.65a6.91,6.91,0,0,1-3.4-.85Z" transform="translate(467.602 508.59)"/>
    <path id="Trazado_238" data-name="Trazado 238" d="M730.33,345.89a3.828,3.828,0,0,0,4.15,4.2,7.88,7.88,0,0,0,3.35-.63l.4,1.58a9.911,9.911,0,0,1-4.05.77c-3.73,0-5.95-2.47-5.95-6.12s2.15-6.5,5.67-6.5c4,0,5,3.45,5,5.67a5.5,5.5,0,0,1-.07,1Zm6.45-1.58c0-1.37-.58-3.55-3-3.55-2.25,0-3.2,2-3.38,3.55Z" transform="translate(467.602 508.59)"/>
    <path id="Trazado_239" data-name="Trazado 239" d="M741.63,333.79h2.2v17.75h-2.2Z" transform="translate(467.602 508.59)"/>
    <path id="Trazado_240" data-name="Trazado 240" d="M293.94,365.92a1.9,1.9,0,1,1-1.854-1.894A1.9,1.9,0,0,1,293.94,365.92ZM290,381.54V369.32h3.8v12.22Z" transform="translate(467.602 508.59)"/>
    <path id="Trazado_241" data-name="Trazado 241" d="M296.86,373.21c0-1.52-.05-2.79-.1-3.89h3.3l.18,1.69h.07a4.4,4.4,0,0,1,3.78-2c2.5,0,4.37,1.67,4.37,5.27v7.23h-3.8v-6.78c0-1.57-.55-2.65-1.92-2.65a2.09,2.09,0,0,0-1.95,1.43,2.73,2.73,0,0,0-.13.95v7.05h-3.8Z" transform="translate(467.602 508.59)"/>
    <path id="Trazado_242" data-name="Trazado 242" d="M311.49,378.24a7.49,7.49,0,0,0,3.27.9c1.15,0,1.63-.38,1.63-1s-.38-.95-1.78-1.43c-2.55-.85-3.52-2.22-3.5-3.67,0-2.3,1.95-4,5-4a8.11,8.11,0,0,1,3.42.72l-.65,2.62a6.08,6.08,0,0,0-2.65-.7c-.92,0-1.45.38-1.45,1s.48.9,2,1.42c2.32.8,3.27,2,3.3,3.78,0,2.3-1.78,4-5.28,4a8.66,8.66,0,0,1-3.95-.87Z" transform="translate(467.602 508.59)"/>
    <path id="Trazado_243" data-name="Trazado 243" d="M326.61,366v3.3h2.73v2.79h-2.73v4.43c0,1.47.38,2.15,1.5,2.15a5,5,0,0,0,1.13-.1v2.87a7.79,7.79,0,0,1-2.45.33,4.07,4.07,0,0,1-2.87-1.05,5.08,5.08,0,0,1-1.05-3.63v-5h-1.63V369.3h1.63V367Z" transform="translate(467.602 508.59)"/>
    <path id="Trazado_244" data-name="Trazado 244" d="M331.54,373.34c0-1.8,0-3-.1-4h3.25l.15,2.24h.1a3.55,3.55,0,0,1,3.3-2.54,3.839,3.839,0,0,1,.8.07v3.57a5.69,5.69,0,0,0-1-.1,2.44,2.44,0,0,0-2.6,1.93,4.5,4.5,0,0,0-.07.85v6.2h-3.8Z" transform="translate(467.602 508.59)"/>
    <path id="Trazado_245" data-name="Trazado 245" d="M352.48,377.61c0,1.6,0,2.9.1,3.93h-3.29l-.18-1.73H349a4.38,4.38,0,0,1-3.83,2c-2.5,0-4.3-1.55-4.3-5.32v-7.17h3.8v6.57c0,1.77.58,2.85,1.93,2.85a2.114,2.114,0,0,0,2.05-2.15v-7.27h3.79Z" transform="translate(467.602 508.59)"/>
    <path id="Trazado_246" data-name="Trazado 246" d="M364.71,381.21a8.569,8.569,0,0,1-3.4.58c-3.95,0-6.47-2.43-6.47-6.25,0-3.58,2.45-6.5,7-6.5a8.709,8.709,0,0,1,2.89.47l-.59,2.83A5.21,5.21,0,0,0,362,372a3.43,3.43,0,0,0,.08,6.85,5.32,5.32,0,0,0,2.17-.4Z" transform="translate(467.602 508.59)"/>
    <path id="Trazado_247" data-name="Trazado 247" d="M371.46,366v3.3h2.73v2.79h-2.73v4.43c0,1.47.38,2.15,1.5,2.15a5,5,0,0,0,1.13-.1v2.87a7.791,7.791,0,0,1-2.45.33,4.07,4.07,0,0,1-2.87-1.05,5.08,5.08,0,0,1-1.05-3.63v-5h-1.63V369.3h1.63V367Z" transform="translate(467.602 508.59)"/>
    <path id="Trazado_248" data-name="Trazado 248" d="M388.33,375.29a6.13,6.13,0,0,1-6.44,6.52,6,6,0,0,1-6.33-6.3c0-4,2.6-6.49,6.55-6.49a5.94,5.94,0,0,1,6.22,6.27Zm-8.84.12c0,2.1.87,3.68,2.5,3.68s2.42-1.48,2.42-3.7c0-1.8-.7-3.65-2.42-3.65S379.49,373.61,379.49,375.41Z" transform="translate(467.602 508.59)"/>
    <path id="Trazado_249" data-name="Trazado 249" d="M390.69,373.34c0-1.8,0-3-.1-4h3.25l.15,2.24h.1a3.54,3.54,0,0,1,3.29-2.54,3.722,3.722,0,0,1,.8.07v3.57a5.67,5.67,0,0,0-1-.1,2.44,2.44,0,0,0-2.6,1.93,4.5,4.5,0,0,0-.07.85v6.2h-3.8Z" transform="translate(467.602 508.59)"/>
    <path id="Trazado_250" data-name="Trazado 250" d="M408.06,369.32l1.65,5.67c.3,1.05.5,2,.7,3h.08c.2-1,.39-1.92.67-3l1.57-5.67h4l-4.55,12.22h-3.79l-4.45-12.22Z" transform="translate(467.602 508.59)"/>
    <path id="Trazado_251" data-name="Trazado 251" d="M422.41,365.92a1.9,1.9,0,1,1-1.854-1.894A1.89,1.89,0,0,1,422.41,365.92Zm-3.92,15.62V369.32h3.8v12.22Z" transform="translate(467.602 508.59)"/>
    <path id="Trazado_252" data-name="Trazado 252" d="M425.34,373.34c0-1.8,0-3-.1-4h3.25l.15,2.24h.1A3.54,3.54,0,0,1,432,369a3.779,3.779,0,0,1,.8.07v3.57a5.67,5.67,0,0,0-1-.1,2.44,2.44,0,0,0-2.6,1.93,4.461,4.461,0,0,0-.08.85v6.2h-3.79Z" transform="translate(467.602 508.59)"/>
    <path id="Trazado_253" data-name="Trazado 253" d="M439.61,366v3.3h2.72v2.79h-2.72v4.43c0,1.47.38,2.15,1.5,2.15a4.93,4.93,0,0,0,1.12-.1v2.87a7.79,7.79,0,0,1-2.45.33,4.07,4.07,0,0,1-2.87-1.05,5.08,5.08,0,0,1-1.05-3.63v-5h-1.63V369.3h1.63V367Z" transform="translate(467.602 508.59)"/>
    <path id="Trazado_254" data-name="Trazado 254" d="M456.06,377.61c0,1.6.05,2.9.1,3.93h-3.3l-.18-1.73h-.07a4.37,4.37,0,0,1-3.82,2c-2.5,0-4.3-1.55-4.3-5.32v-7.17h3.8v6.57c0,1.77.57,2.85,1.92,2.85a2.114,2.114,0,0,0,2.05-2.15v-7.27h3.8Z" transform="translate(467.602 508.59)"/>
    <path id="Trazado_255" data-name="Trazado 255" d="M469.28,378.59a15.878,15.878,0,0,0,.2,3h-3.42l-.23-1.23h-.07a4.39,4.39,0,0,1-3.5,1.5,3.75,3.75,0,0,1-3.95-3.75c0-3.17,2.85-4.67,7.18-4.67v-.15c0-.68-.36-1.6-2.23-1.6a6.85,6.85,0,0,0-3.37.92l-.7-2.44a10,10,0,0,1,4.75-1.1c4.07,0,5.34,2.4,5.34,5.29Zm-3.67-2.83c-2,0-3.55.48-3.55,1.93a1.37,1.37,0,0,0,1.5,1.45,2.11,2.11,0,0,0,2-1.4,3.413,3.413,0,0,0,.07-.65Z" transform="translate(467.602 508.59)"/>
    <path id="Trazado_256" data-name="Trazado 256" d="M472.31,363.79h3.8v17.75h-3.8Z" transform="translate(467.602 508.59)"/>
    <path id="Trazado_257" data-name="Trazado 257" d="M478.69,379.51a2.24,2.24,0,1,1,2.2,2.3,2.18,2.18,0,0,1-2.2-2.3Z" transform="translate(467.602 508.59)"/>
  </g>
</svg>
